<?xml version="1.0" encoding="UTF-8"?>
<svg id="ic_aplicacao" data-name="Camada 1" xmlns="http://www.w3.org/2000/svg" viewBox="0 0 214.47 222.64">
  <defs>
    <style>
      .aplicacao_1 {
        fill: #fff;
      }

      .aplicacao_2 {
        fill: #043420;
      }
    </style>
  </defs>
  <path class="aplicacao_2" d="M174.44,111.37c0,37.12-30.1,67.22-67.22,67.22s-67.22-30.1-67.22-67.22,30.1-67.22,67.22-67.22,67.22,30.1,67.22,67.22ZM170.1,111.38c0-34.73-28.16-62.89-62.89-62.89s-62.89,28.16-62.89,62.89,28.16,62.89,62.89,62.89,62.89-28.16,62.89-62.89Z"/>
  <path class="aplicacao_1" d="M170.1,111.38c0,34.73-28.16,62.89-62.89,62.89s-62.89-28.16-62.89-62.89,28.16-62.89,62.89-62.89,62.89,28.16,62.89,62.89ZM109,62.93l-.02-5.36c0-.94-1.25-1.97-2.21-1.9-.66.05-1.62,1.18-1.62,1.88l-.04,5.47c0,1.1,1.03,2.09,2.12,2,.78-.06,1.77-1.15,1.77-2.09ZM134.28,131.61l-22.09-18.21c.81-3.21-.46-5.69-3.21-6.9l-.03-31.77c0-.65-1.17-1.48-1.73-1.55s-2.02.67-2.02,1.24l-.05,32.09c-3.08,1.5-4.28,4.6-2.94,7.52,1.18,2.56,4.25,3.74,7.27,2.54l22.51,18.51c.99.81,2.64.6,3.23-.5.42-.78.05-2.16-.93-2.97ZM61.06,113.78c.99,0,2.02-1.26,1.94-2.25-.06-.68-1.16-1.82-1.95-1.82h-5.5c-.95-.01-2.14,1.29-2.03,2.13.13.95,1.2,1.97,2.05,1.96l5.48-.02ZM159.06,113.75c.72,0,1.7-1.55,1.63-2.21s-1.15-1.85-1.87-1.84h-6c-.82,0-1.9,1.47-1.81,2.25.07.65,1.13,1.84,1.82,1.84l6.22-.03ZM109,164.86l-.03-5.77c0-.83-1.34-1.84-2.16-1.76-.63.06-1.75,1.1-1.73,1.77l.19,6.59c.02.76,1.73,1.39,2.34,1.16.52-.2,1.39-1.32,1.39-1.98Z"/>
  <path class="aplicacao_2" d="M134.28,131.61c.98.81,1.35,2.19.93,2.97-.59,1.1-2.24,1.31-3.23.5l-22.51-18.51c-3.02,1.2-6.09.02-7.27-2.54-1.34-2.92-.15-6.02,2.94-7.52l.05-32.09c0-.57,1.46-1.31,2.02-1.24s1.73.9,1.73,1.55l.03,31.77c2.75,1.21,4.02,3.69,3.21,6.9l22.09,18.21ZM108.9,111.58c0-1.04-.84-1.88-1.88-1.88s-1.88.84-1.88,1.88.84,1.88,1.88,1.88,1.88-.84,1.88-1.88Z"/>
  <path class="aplicacao_2" d="M159.06,113.75l-6.22.03c-.69,0-1.74-1.19-1.82-1.84-.09-.78.99-2.24,1.81-2.24h6c.72,0,1.8,1.17,1.87,1.84s-.91,2.21-1.63,2.21Z"/>
  <path class="aplicacao_2" d="M109,164.86c0,.66-.86,1.79-1.39,1.98-.61.23-2.32-.39-2.34-1.16l-.19-6.59c-.02-.67,1.1-1.71,1.73-1.77.82-.08,2.16.93,2.16,1.76l.03,5.77Z"/>
  <path class="aplicacao_2" d="M61.06,113.78l-5.48.02c-.85,0-1.92-1.02-2.05-1.96-.12-.83,1.08-2.14,2.03-2.14h5.5c.79.01,1.89,1.15,1.95,1.83.08.99-.95,2.25-1.94,2.25Z"/>
  <path class="aplicacao_2" d="M109,62.93c0,.95-.99,2.03-1.77,2.09-1.1.09-2.13-.9-2.12-2l.04-5.47c0-.7.96-1.83,1.62-1.88.96-.07,2.2.95,2.21,1.9l.02,5.36Z"/>
  <circle class="aplicacao_1" cx="107.02" cy="111.58" r="1.88"/>
</svg>