<?xml version="1.0" encoding="UTF-8"?>
<svg id="ic_certificacao" data-name="Camada 1" xmlns="http://www.w3.org/2000/svg" viewBox="0 0 214.47 222.64">
  <defs>
    <style>
      .certificacao_1 {
        fill: #fff;
      }

      .certificacao_2 {
        fill: #043420;
      }
    </style>
  </defs>
  <path class="certificacao_2" d="M119.17,178.77l-12.07-33.21-12.2,33.25-13.4-15.48-21.19,4.8,12.8-40.14c-21.61-21.64-18.78-57.29,5.99-75.13,11-7.92,24.54-10.49,38.09-8.18,23.33,4.48,39.54,25.64,38.69,49.42-.46,12.94-5.71,24.84-14.86,33.97l12.94,40.1-21.1-4.82-13.7,15.41ZM152.33,92.75c0-24.85-20.14-44.99-44.99-44.99s-44.99,20.14-44.99,44.99,20.14,44.99,44.99,44.99,44.99-20.14,44.99-44.99ZM93.6,171.47l10.82-29.77c-10.38-.58-19.69-4.14-28.16-10.88l-10.33,31.95,16.96-3.67,10.71,12.37ZM131.59,159.04l16.69,3.73-10.39-31.97c-8.28,6.54-17.53,10.28-28.13,10.89l10.79,29.79,11.05-12.43Z"/>
  <path class="certificacao_1" d="M152.33,92.75c0,24.85-20.14,44.99-44.99,44.99s-44.99-20.14-44.99-44.99,20.14-44.99,44.99-44.99,44.99,20.14,44.99,44.99ZM122,117.71c.4.23,1.84.09,2.12-.26s.56-1.25.48-1.7l-3.45-17.14,12.61-11.72c.4-.37.76-1.52.6-1.97s-1.11-1.07-1.6-1.12l-16.75-1.82-7.33-16.68c-.23-.53-1.19-1.17-1.65-1.14s-1.4.68-1.59,1.15l-6.95,16.63-16.86,1.85c-.52.06-1.52.74-1.67,1.21-.12.39.19,1.39.53,1.71l12.71,11.91-3.45,17.36c-.08.39.24,1.19.47,1.5s1.56.56,2.04.28l14.88-8.83,14.86,8.78Z"/>
  <path class="certificacao_1" d="M131.59,159.04l-11.05,12.43-10.79-29.79c10.61-.61,19.86-4.35,28.13-10.89l10.39,31.97-16.69-3.73Z"/>
  <path class="certificacao_1" d="M93.6,171.47l-10.71-12.37-16.96,3.67,10.33-31.95c8.47,6.74,17.77,10.3,28.16,10.88l-10.82,29.77Z"/>
  <path class="certificacao_2" d="M122,117.71l-14.86-8.78-14.88,8.83c-.48.28-1.81.03-2.04-.28s-.54-1.11-.47-1.5l3.45-17.36-12.71-11.91c-.34-.32-.66-1.32-.53-1.71.15-.47,1.15-1.15,1.67-1.21l16.86-1.85,6.95-16.63c.2-.47,1.14-1.12,1.59-1.15s1.41.61,1.65,1.14l7.33,16.68,16.75,1.82c.48.05,1.44.68,1.6,1.12s-.21,1.6-.6,1.97l-12.61,11.72,3.45,17.14c.09.44-.2,1.35-.48,1.7s-1.73.49-2.12.26ZM107.28,104.47l12.71,7.63-2.91-14.75,10.8-10.21-14.57-1.82-6.17-14.22-6.02,14.23-14.78,1.74,10.96,10.26-2.97,14.8,12.96-7.67Z"/>
  <polygon class="certificacao_1" points="107.28 104.47 94.32 112.14 97.3 97.35 86.33 87.08 101.11 85.34 107.13 71.11 113.3 85.33 127.88 87.15 117.08 97.36 119.99 112.11 107.28 104.47"/>
</svg>