<?xml version="1.0" encoding="UTF-8"?>
<svg id="ic_cobertura" data-name="Camada 1" xmlns="http://www.w3.org/2000/svg" viewBox="0 0 214.47 222.64">
  <defs>
    <style>
      .cobertura_1 {
        fill: #fff;
      }

      .cobertura_2 {
        fill: #043420;
      }
    </style>
  </defs>
  <path class="cobertura_2" d="M169.36,111.34c0,34.31-27.81,62.12-62.12,62.12s-62.12-27.81-62.12-62.12,27.81-62.12,62.12-62.12,62.12,27.81,62.12,62.12ZM79.08,79.42c2.61-7.18,6.22-12.94,10.61-18.66l7.35-7.09c-14.87,2.79-27.95,10.95-36.86,23.64l18.9,2.11ZM83,79.74l22.34.75-.05-26.99c-3.65,1.61-6.4,3.63-9.24,6.12-5.77,5.66-10.08,12.25-13.06,20.12ZM154.36,77.26c-9.22-12.9-22.28-21.15-37.39-23.74,8.74,7.05,14.58,15.84,18.47,25.97l18.92-2.23ZM131.26,79.7c-2.88-7.55-6.71-13.63-11.92-18.99-3.08-2.93-6.21-5.48-10.25-6.95v26.82s22.17-.87,22.17-.87ZM140.69,109.43l24.47-.06c-.17-10.41-3.34-20.16-8.55-28.65l-19.9,2.4c2.55,8.54,3.76,17.15,3.99,26.31ZM73.65,109.37c.03-9.47,1.44-17.91,4.09-26.28l-19.78-2.27c-5.32,8.37-8.28,17.94-8.74,28.44l24.43.1ZM105.33,109.34l-.02-25.05-23.76-.81c-2.77,8.45-4.23,17.09-4.09,25.93l27.87-.07ZM136.83,109.34c-.12-9.27-1.4-17.64-4.1-25.86l-23.64.82.02,25.06,27.73-.02ZM77.98,139.35c-2.85-8.8-4.12-17.34-4.36-26.35l-24.4.03c.28,10.53,3.36,20.02,8.56,28.72l20.2-2.4ZM105.32,138.28v-25.26s-27.86-.03-27.86-.03c.07,8.83,1.59,17.53,4.41,26.15l23.45-.86ZM132.43,139.05c2.79-8.6,4.03-16.9,4.45-26.03h-27.8s.03,25.23.03,25.23l23.33.8ZM156.83,141.72c5.32-9.07,8.2-18.5,8.32-28.69l-24.54-.02c-.19,9.29-1.75,17.69-4.3,26.34l20.52,2.36ZM105.32,168.83v-26.93s-22.01.75-22.01.75c2.26,5.8,5.11,10.75,8.65,15.61,3.78,4.35,7.69,8.44,13.37,10.57ZM122.17,158.43c3.73-4.97,6.62-9.95,8.83-15.73l-21.92-.7.04,26.87c5.58-2.45,9.37-5.97,13.05-10.44ZM87.61,158.85c-3.41-5.08-6.08-10.12-8.39-15.89l-19.16,2.26c8.69,12.95,22.1,21.25,37.44,23.84-3.69-3.15-6.96-6.35-9.89-10.22ZM116.6,169.15c15.1-2.36,29.04-10.73,37.91-23.89l-19.39-2.2-4.98,10.41c-3.58,6-7.75,11.27-13.54,15.69Z"/>
  <path class="cobertura_1" d="M132.43,139.05l-23.33-.8-.03-25.24h27.8c-.41,9.14-1.65,17.44-4.45,26.04Z"/>
  <path class="cobertura_1" d="M105.32,138.28l-23.45.86c-2.83-8.61-4.34-17.32-4.41-26.15l27.86.03v25.26Z"/>
  <path class="cobertura_1" d="M136.83,109.34l-27.73.02-.02-25.06,23.64-.82c2.71,8.22,3.98,16.59,4.1,25.86Z"/>
  <path class="cobertura_1" d="M105.33,109.34l-27.87.07c-.13-8.84,1.32-17.49,4.09-25.93l23.76.81.02,25.05Z"/>
  <path class="cobertura_1" d="M156.83,141.72l-20.52-2.36c2.55-8.65,4.11-17.05,4.3-26.34l24.54.02c-.12,10.19-3,19.62-8.32,28.69Z"/>
  <path class="cobertura_1" d="M77.98,139.35l-20.2,2.4c-5.2-8.69-8.27-18.18-8.56-28.72l24.4-.03c.23,9.01,1.51,17.55,4.36,26.35Z"/>
  <path class="cobertura_1" d="M140.69,109.43c-.22-9.15-1.44-17.77-3.99-26.31l19.9-2.4c5.21,8.5,8.38,18.24,8.55,28.65l-24.47.06Z"/>
  <path class="cobertura_1" d="M73.65,109.37l-24.43-.1c.46-10.5,3.42-20.07,8.74-28.44l19.78,2.27c-2.65,8.37-4.06,16.81-4.09,26.28Z"/>
  <path class="cobertura_1" d="M131.26,79.7l-22.18.87v-26.82c4.04,1.47,7.17,4.02,10.25,6.95,5.22,5.36,9.04,11.44,11.92,18.99Z"/>
  <path class="cobertura_1" d="M83,79.74c2.97-7.87,7.29-14.46,13.06-20.12,2.84-2.49,5.58-4.51,9.24-6.12l.05,26.99-22.34-.75Z"/>
  <path class="cobertura_1" d="M122.17,158.43c-3.68,4.47-7.47,7.99-13.05,10.44l-.04-26.87,21.92.7c-2.22,5.78-5.11,10.76-8.83,15.73Z"/>
  <path class="cobertura_1" d="M105.32,168.83c-5.67-2.12-9.59-6.21-13.37-10.57-3.53-4.86-6.39-9.81-8.65-15.61l22.01-.75v26.93Z"/>
  <path class="cobertura_1" d="M116.6,169.15c5.79-4.42,9.96-9.69,13.54-15.69l4.98-10.41,19.39,2.2c-8.87,13.16-22.81,21.54-37.91,23.89Z"/>
  <path class="cobertura_1" d="M87.61,158.85c2.92,3.87,6.2,7.07,9.89,10.22-15.34-2.59-28.75-10.89-37.44-23.84l19.16-2.26c2.31,5.77,4.98,10.81,8.39,15.89Z"/>
  <path class="cobertura_1" d="M154.36,77.26l-18.92,2.23c-3.89-10.13-9.73-18.92-18.47-25.97,15.11,2.59,28.17,10.84,37.39,23.74Z"/>
  <path class="cobertura_1" d="M79.08,79.42l-18.9-2.11c8.91-12.69,22-20.85,36.86-23.64l-7.35,7.09c-4.39,5.72-8,11.48-10.61,18.66Z"/>
</svg>