<?xml version="1.0" encoding="UTF-8"?>
<svg id="ic_controle_aves" data-name="Camada 1" xmlns="http://www.w3.org/2000/svg" viewBox="0 0 214.47 222.64">
  <defs>
    <style>
      .controle_aves_1 {
        fill: #fff;
      }

      .controle_aves_2 {
        fill: #043420;
      }
    </style>
  </defs>
  <path class="controle_aves_2" d="M166.16,163.15H47.85c-6.01,0-11.18-4.78-11.18-10.87l.02-81.99c0-5.71,5-10.81,10.72-10.81l119.85.02c6,0,10.5,5.48,10.5,11.23l-.02,81.55c0,6.28-5.26,10.86-11.59,10.86ZM114.27,113.47l58.77-45.18c-1.04-2.83-3.45-4.62-6.7-4.62H48.36c-3.29,0-5.88,1.63-6.89,4.64l59.35,45.55c4.39,3.37,8.94,3.07,13.45-.39ZM173.62,151.57l-.02-78.28-57.83,44.46c-5.59,4.13-12.35,3.59-17.75-.55l-57.2-43.86-.03,78.4c0,3.98,3.16,7.16,7.1,7.16h118.9c3.85-.32,6.84-3.05,6.84-7.32Z"/>
  <path class="controle_aves_1" d="M173.62,151.57c0,4.27-2.99,7-6.84,7.32H47.88c-3.94,0-7.1-3.19-7.1-7.16l.03-78.4,57.2,43.86c5.4,4.14,12.16,4.68,17.75.55l57.83-44.46.02,78.28Z"/>
  <path class="controle_aves_1" d="M114.27,113.47c-4.51,3.46-9.06,3.76-13.45.39l-59.35-45.55c1.02-3.01,3.6-4.65,6.89-4.65h117.97c3.25,0,5.66,1.79,6.7,4.62l-58.77,45.18Z"/>
</svg>