<?xml version="1.0" encoding="UTF-8"?>
<svg id="ic_descupinizacao" data-name="Camada 1" xmlns="http://www.w3.org/2000/svg" viewBox="0 0 214.47 222.64">
  <defs>
    <style>
      .descupinizacao_1 {
        fill: #fff;
      }

      .descupinizacao_2 {
        fill: #043420;
      }
    </style>
  </defs>
  <path class="descupinizacao_2" d="M73.23,168.99l-32.35,10.92,9.49-33.93c-7.4-12.52-10.47-26.15-9.31-40.52,1.49-13.4,6.32-25.95,14.79-36.46,15.32-19.01,40.17-28.08,64.06-23.47,31.01,5.98,53.18,32.81,53.99,64.27.68,26.16-13.88,50.6-37.47,62.06-20.23,9.86-43.76,8.97-63.2-2.87ZM47.39,173.1l26.41-8.84c19.57,12.7,43.92,13.41,64.2,1.85,22.44-12.79,34.8-38.27,30.93-64.02-3.65-24.31-21.48-45.06-46.01-51.41-22.57-5.85-46.88,1.64-62.22,19.35-11.75,13.56-17.2,31.33-15.11,49.08,1.15,9.73,4.69,18.25,9.49,26.52l-7.69,27.47Z"/>
  <path class="descupinizacao_1" d="M47.39,173.1l7.69-27.47c-4.79-8.27-8.34-16.79-9.49-26.52-2.09-17.75,3.36-35.52,15.11-49.08,15.34-17.7,39.65-25.19,62.22-19.35,24.53,6.35,42.36,27.1,46.01,51.41,3.87,25.75-8.5,51.23-30.93,64.02-20.28,11.55-44.63,10.85-64.2-1.85l-26.41,8.84ZM128.28,118.12c-2.61-1.31-6-.77-7.72,1.3l-4.78,5.77c-10.17-3.97-17.82-11.07-22.65-20.54l3.96-3.45c2.48-2.16,3.04-5.35,1.76-8.35l-5.52-12.98c-1.39-3.28-5.72-4.16-9-3.21-8.2,2.38-13.36,10.3-12.85,18.88.27,4.5,1.55,8.62,3.5,12.68,8.86,18.52,26.35,34.47,47.19,37.65,10.41,1.59,19.93-4.4,21.77-14.84.43-2.43-.88-5.54-3.03-6.62l-12.62-6.31Z"/>
  <path class="descupinizacao_2" d="M128.28,118.12l12.62,6.31c2.15,1.07,3.46,4.19,3.03,6.62-1.84,10.44-11.36,16.43-21.77,14.84-20.84-3.19-38.34-19.14-47.19-37.65-1.94-4.06-3.23-8.18-3.5-12.68-.51-8.58,4.65-16.5,12.85-18.88,3.28-.95,7.61-.07,9,3.21l5.52,12.98c1.28,3,.72,6.19-1.76,8.35l-3.96,3.45c4.82,9.47,12.47,16.57,22.65,20.54l4.78-5.77c1.72-2.08,5.11-2.61,7.72-1.3ZM123.04,123.01l-3.71,4.91c-.88,1.17-3.55,1.77-5.13,1.18-10.66-3.96-19.2-11.76-24.6-21.74-1.13-2.09-.6-4.82,1.15-6.31l3.42-2.9c.79-.67,1.38-2.27.91-3.39l-5.52-13.1c-.7-1.66-3.67-1.14-5.01-.6-6.24,2.54-9.77,9.05-8.64,15.88.9,5.45,3.19,10.42,6.07,15.21,6.56,10.91,15.77,19.72,27.25,25.19,9.76,4.66,24.46,8.5,29.77-4.2.51-1.23,1.62-4.03-.1-4.9l-12.55-6.39c-1.12-.57-2.59.22-3.29,1.15Z"/>
  <path class="descupinizacao_1" d="M123.04,123.01c.7-.93,2.17-1.71,3.29-1.15l12.55,6.39c1.71.87.61,3.67.1,4.9-5.3,12.69-20.01,8.85-29.77,4.2-11.47-5.47-20.68-14.28-27.25-25.19-2.88-4.79-5.18-9.76-6.07-15.21-1.12-6.83,2.4-13.34,8.64-15.88,1.34-.55,4.31-1.06,5.01.6l5.52,13.1c.47,1.12-.12,2.72-.91,3.39l-3.42,2.9c-1.75,1.48-2.28,4.21-1.15,6.31,5.4,9.98,13.94,17.78,24.6,21.74,1.58.59,4.25-.02,5.13-1.18l3.71-4.91Z"/>
</svg>