<?xml version="1.0" encoding="UTF-8"?>
<svg id="ic_desinsetizacao" data-name="Camada 1" xmlns="http://www.w3.org/2000/svg" viewBox="0 0 214.47 222.64">
  <defs>
    <style>
      .desinsetizacao_1 {
        fill: #fff;
      }

      .desinsetizacao_2 {
        fill: #043420;
      }
    </style>
  </defs>
  <path class="desinsetizacao_2" d="M165.5,147.91c-10.5,27.13-32.59,44.14-58.69,55.19-19.45-8.03-39.01-21.73-50.05-39.8-8.61-14.09-14.52-30.27-14.57-46.98l-.23-70.02c0-.81,1.35-1.84,2.08-1.94,15.49-2.18,30.04-6.75,43.91-13.91,6.3-3.25,11.91-6.67,17.9-10.49.63-.4,1.94-.33,2.61.1,7.24,4.65,14.2,8.92,22.01,12.57,12.77,5.98,26.02,9.69,39.97,11.78,1.14.17,2.07,1.09,2.07,2.27l-.13,69.22c-.02,11.13-2.9,21.73-6.88,32.01ZM106.93,199.55c27.33-12.35,47.91-29.14,57.47-58.02,2.66-8.69,4.82-17.13,4.84-26.39l.14-67.62c-23.91-3.61-42.15-11.3-62.28-24.4-19.96,12.62-38.07,20.88-61.94,24.3l.15,67.82c.03,13.38,4.06,25.85,9.41,37.82,10.97,22.41,29.78,36.61,52.22,46.49Z"/>
  <path class="desinsetizacao_1" d="M106.93,199.55c-22.44-9.88-41.25-24.08-52.22-46.49-5.34-11.97-9.38-24.44-9.41-37.82l-.15-67.82c23.88-3.43,41.98-11.68,61.94-24.3,20.13,13.11,38.37,20.79,62.28,24.4l-.14,67.62c-.02,9.26-2.18,17.7-4.84,26.39-9.56,28.87-30.14,45.67-57.47,58.02ZM106.93,194.21c23.44-10.78,42.76-26.68,51.55-50.99,3.38-9.35,5.7-18.81,5.71-28.95l.05-62.54c-22.4-4.26-38.02-10.98-57.1-22.78-18.73,11.23-34.99,18.7-56.95,22.7l.03,62.17c0,14.86,4.62,28.8,11.48,41.67,9.57,17.04,27.15,30.87,45.24,38.72Z"/>
  <path class="desinsetizacao_2" d="M106.93,194.21c-18.08-7.85-35.67-21.67-45.24-38.72-6.87-12.88-11.48-26.82-11.48-41.67l-.03-62.17c21.96-4.01,38.23-11.48,56.95-22.7,19.08,11.8,34.71,18.52,57.1,22.78l-.05,62.54c0,10.14-2.33,19.6-5.71,28.95-8.79,24.32-28.11,40.21-51.55,50.99ZM106.91,191.74c18.59-8.78,35.32-21.14,45.23-39.68,5.55-11.52,9.65-23.73,9.68-36.83l.15-61.68c-21.14-4-36.95-11.17-55.05-21.87-18.09,10.95-33.97,17.78-54.48,21.83l.11,61.23c.02,10.13,2.57,19.51,6,28.81,8.76,22.69,26.57,38.07,48.35,48.2Z"/>
  <path class="desinsetizacao_1" d="M106.91,191.74c-21.78-10.13-39.59-25.51-48.35-48.2-3.43-9.3-5.98-18.67-6-28.81l-.11-61.23c20.51-4.05,36.38-10.88,54.48-21.83,18.1,10.7,33.91,17.87,55.05,21.87l-.15,61.68c-.03,13.1-4.13,25.31-9.68,36.83-9.91,18.54-26.64,30.9-45.23,39.68ZM147.8,61.12c.73-.26,1.35-1.58,1.1-2.08s-1.49-.91-2.28-.67-1.44,1.47-1.24,2.09c.21.65,1.35,1.05,2.42.67ZM139.52,64.21c.68-.36,1.34-.9,1.42-1.33s-.46-1.45-.9-1.45c-.35,0-1,.09-1.6.19s-1.31,1.44-1.09,1.97,1.59.91,2.16.61ZM122.45,117.18l-11.84-17.26v-6.96c0-2.32-1.21-4.06-3.7-4.55l-.23-4.13c-.03-.57.7-1.56,1.32-1.75.51-.16,1.29.66,1.56,1.34,3.26,8.24,12.23,9.47,12.58,7.3.07-.41-.19-1.26-.48-1.6-2.68-3.15-4.13-6.42-5.63-10.27-.47-1.2-.45-2.58.04-3.37,1.58-2.59,5.04.06,8.95-1.79l.23-6.44c.03-.96-1.34-2.16-2.24-2.16h-6.61c-.58-2.78-2.37-4.05-4.88-4.05l-27.54.02c-.85,0-1.81,1.21-1.8,1.96l.11,12.82c.01,1.35,2.4,2.1,3.53,2.01,2.05-.17,3.61.43,4.81,1.91l2.33,2.89.16,5.22c-2.48.6-3.97,2.14-3.98,4.65l-.02,6.99-12.11,16.92c-1.47,2.05-2.38,4.37-2.37,6.95l.04,33.62c0,4.18,3.57,6.97,7.44,6.97h34.6c3.98,0,7.89-2.5,7.9-6.99l.03-34.06c0-2.14-1.04-4.49-2.19-6.17ZM132.18,67.29c.57-.12,1.29-1.49,1.01-1.94s-1.52-.94-2.01-.73c-.68.3-1.34.77-1.55,1.19-.17.34.04,1.3.4,1.42s1.45.2,2.15.05ZM141.33,69.55c-.69-.3-2.33-.3-2.85.08-.39.28-.51,1.65-.16,1.99.77.73,2.79.65,3.38-.3.19-.31-.04-1.62-.38-1.77ZM150.31,69.56c-.7-.34-2.64-.34-3.2.13-.35.3-.54,1.66-.14,1.88,1.2.66,2.71.92,3.81-.29.25-.28-.11-1.54-.47-1.72ZM133.05,74.34c-.34-1.18-2.75-1.56-3.33-.7-.87,1.29.34,2.37,1.56,2.6.79.15,2.16-.53,1.76-1.9ZM140.91,77.66c-.35-.3-1.33-.87-1.78-1.06-.53-.22-1.8.45-1.88,1.02-.06.49.6,1.63,1.08,1.75.83.2,1.7.28,2.21.22.41-.05.67-1.68.36-1.94ZM148.57,80.34c-.62-.49-2.21-.82-2.86-.65-.46.12-.89,1.75-.47,1.99l1.51.87c.43.25,1.65-.06,2.02-.41.29-.28.13-1.55-.19-1.8Z"/>
  <path class="desinsetizacao_2" d="M150.31,69.56c.36.17.72,1.44.47,1.72-1.1,1.21-2.6.95-3.81.29-.4-.22-.21-1.59.14-1.88.56-.47,2.5-.47,3.2-.13Z"/>
  <path class="desinsetizacao_2" d="M141.33,69.55c.34.15.57,1.46.38,1.77-.59.94-2.62,1.03-3.38.3-.35-.33-.23-1.7.16-1.99.51-.37,2.15-.38,2.85-.08Z"/>
  <path class="desinsetizacao_2" d="M133.05,74.34c.4,1.38-.97,2.05-1.76,1.9-1.23-.23-2.43-1.31-1.56-2.6.58-.86,2.98-.48,3.33.7Z"/>
  <path class="desinsetizacao_2" d="M140.91,77.66c.31.26.05,1.9-.36,1.94-.51.06-1.38-.02-2.21-.22-.48-.12-1.15-1.26-1.08-1.75.08-.57,1.35-1.24,1.88-1.02.45.19,1.43.75,1.78,1.06Z"/>
  <path class="desinsetizacao_2" d="M148.57,80.34c.32.25.48,1.52.19,1.8-.36.35-1.59.66-2.02.41l-1.51-.87c-.41-.24.01-1.87.47-1.99.65-.17,2.24.16,2.86.65Z"/>
  <path class="desinsetizacao_2" d="M147.8,61.12c-1.08.38-2.21-.02-2.42-.67s.42-1.84,1.24-2.09,2.01.14,2.28.67-.36,1.83-1.1,2.08Z"/>
  <path class="desinsetizacao_2" d="M139.52,64.21c-.57.3-1.94-.08-2.16-.61s.5-1.87,1.09-1.97,1.24-.2,1.6-.19c.44,0,.98,1.02.9,1.45s-.74.97-1.42,1.33Z"/>
  <path class="desinsetizacao_2" d="M132.18,67.29c-.7.15-1.79.06-2.15-.05s-.56-1.08-.4-1.42c.21-.43.87-.9,1.55-1.19.49-.21,1.72.28,2.01.73s-.44,1.81-1.01,1.94Z"/>
  <path class="desinsetizacao_2" d="M122.45,117.18c1.15,1.68,2.19,4.03,2.19,6.17l-.03,34.06c0,4.49-3.91,6.98-7.9,6.98h-34.6c-3.87,0-7.43-2.78-7.44-6.97l-.04-33.62c0-2.59.91-4.9,2.37-6.95l12.11-16.92.02-6.99c0-2.5,1.5-4.05,3.98-4.65l-.16-5.22-2.33-2.89c-1.2-1.48-2.75-2.08-4.81-1.91-1.13.09-3.52-.66-3.53-2.01l-.11-12.82c0-.75.95-1.96,1.8-1.96l27.54-.02c2.5,0,4.29,1.26,4.88,4.04h6.61c.9,0,2.27,1.21,2.24,2.17l-.23,6.44c-3.91,1.85-7.37-.8-8.95,1.79-.48.79-.5,2.18-.04,3.37,1.5,3.85,2.95,7.12,5.63,10.27.29.34.54,1.19.48,1.6-.35,2.17-9.32.94-12.58-7.3-.27-.68-1.05-1.5-1.56-1.34-.62.19-1.35,1.18-1.32,1.75l.23,4.13c2.5.49,3.7,2.24,3.7,4.55v6.96s11.84,17.26,11.84,17.26ZM113.62,75.03l.08-8.65c0-.91-1.21-1.97-2.13-1.97l-26.52.05v11.05c4.54-.74,6.87,1.47,9.2,4.5l12.85-.02c1.88-1.86,4.1-3.52,6.51-4.95ZM122.62,72l-.14-3.6-5.95-.07-.19,3.62,6.28.05ZM116.96,88.39l-4.07-9.67c-.7.47-1.67,1.19-2.26,1.68l2.63,4.69c.8,1.42,2.5,2.74,3.7,3.3ZM104.15,88.39l-.12-5.44-8.11.02v5.43s8.23,0,8.23,0ZM107.69,97.69c.07-2.29.04-4.05-.25-6.4l-15.28.04-.05,6.41,15.58-.05ZM77.51,156.82c-.14,2.51,1.76,4.69,4.2,4.69l35.02.05c2.45,0,4.99-1.47,4.99-4.17v-33.56c0-1.68-.71-3.46-1.62-4.79l-12.6-18.4h-15.28s-12.27,17.22-12.27,17.22l19.24.12c2.56.02,4.32,2.45,4.24,4.85v26.57c0,2.82-1.96,4.75-4.74,4.75h-20.87c-.14.65-.25,1.57-.32,2.68ZM100.55,149.21v-26.4c.01-.84-.99-1.95-1.8-1.95l-19.62-.02c-.62-.03-1.64.86-1.64,1.58l-.02,28.83h21.28c.86.01,1.8-.96,1.8-2.05Z"/>
  <path class="desinsetizacao_1" d="M77.51,156.82c.06-1.12.17-2.03.32-2.69h20.87c2.78.01,4.73-1.91,4.73-4.74v-26.57c.09-2.4-1.67-4.83-4.23-4.85l-19.24-.12,12.27-17.23h15.28s12.6,18.41,12.6,18.41c.91,1.33,1.63,3.11,1.63,4.79v33.56c0,2.7-2.54,4.17-5,4.17l-35.02-.05c-2.45,0-4.34-2.18-4.2-4.69Z"/>
  <path class="desinsetizacao_1" d="M100.55,149.21c0,1.09-.94,2.06-1.8,2.06h-21.28s.02-28.85.02-28.85c0-.72,1.02-1.62,1.64-1.58l19.62.02c.81,0,1.81,1.1,1.81,1.95v26.4Z"/>
  <path class="desinsetizacao_1" d="M113.62,75.03c-2.42,1.43-4.64,3.09-6.51,4.95l-12.85.02c-2.33-3.03-4.67-5.23-9.2-4.5v-11.05s26.52-.05,26.52-.05c.92,0,2.14,1.06,2.13,1.97l-.08,8.65Z"/>
  <path class="desinsetizacao_1" d="M107.69,97.69l-15.58.05.05-6.41,15.28-.04c.29,2.35.32,4.11.25,6.4Z"/>
  <polygon class="desinsetizacao_1" points="104.15 88.39 95.91 88.4 95.92 82.97 104.03 82.95 104.15 88.39"/>
  <polygon class="desinsetizacao_1" points="122.62 72 116.34 71.95 116.53 68.33 122.48 68.4 122.62 72"/>
  <path class="desinsetizacao_1" d="M116.96,88.39c-1.19-.56-2.9-1.88-3.7-3.3l-2.63-4.69c.58-.49,1.56-1.21,2.26-1.68l4.07,9.67Z"/>
</svg>