<?xml version="1.0" encoding="UTF-8"?>
<svg id="ic_desratizacao" data-name="Camada 1" xmlns="http://www.w3.org/2000/svg" viewBox="0 0 214.47 222.64">
  <defs>
    <style>
      .desratizacao_1 {
        fill: #fff;
      }

      .desratizacao_2 {
        fill: #043420;
      }
    </style>
  </defs>
  <path class="desratizacao_2" d="M107.1,203.3c-24.07-9.67-45.41-26.42-56.1-50.32-5.13-11.46-8.85-23.51-8.89-36.22l-.23-69.19c0-1.95.84-2.98,2.79-3.25,17.86-2.46,34.76-8.16,50.17-17.53l12.25-7.45c20.14,13.39,39.47,21.93,63.52,25.22,1.19.16,1.99,1.27,1.99,2.52l-.07,67.32c-.01,13.9-3.52,27.14-9.38,39.54-11.23,23.76-31.82,38.65-56.03,49.37ZM106.99,199.75c22.67-10.24,41.93-24.33,52.99-46.57,5.5-11.94,9.28-24.45,9.31-37.86l.13-67.66c-17.73-2.43-34.6-7.73-49.85-16.89l-12.51-7.51c-19.91,12.63-37.77,20.91-61.9,24.3l.11,67.77c.02,14.52,4.55,28.07,10.86,40.81,11.02,20.58,29.71,34.57,50.86,43.62Z"/>
  <path class="desratizacao_1" d="M106.99,199.75c-21.15-9.05-39.84-23.04-50.86-43.62-6.31-12.75-10.84-26.29-10.86-40.81l-.11-67.77c24.14-3.39,41.99-11.67,61.9-24.3l12.51,7.51c15.25,9.16,32.11,14.47,49.85,16.89l-.13,67.66c-.03,13.4-3.81,25.92-9.31,37.86-11.05,22.24-30.32,36.33-52.99,46.57ZM157.61,146.06c3.95-10.02,6.79-20.28,6.8-31.22l.03-62.9c-22.74-4.29-38.01-11.01-57.43-22.89-18.96,11.51-34.81,18.67-56.88,22.78l.13,64.91c.02,8.72,2.38,16.68,5.09,24.76,8.4,25.11,27.85,42.44,51.64,52.82,21.89-9.94,41.68-25.63,50.62-48.26Z"/>
  <path class="desratizacao_2" d="M157.61,146.06c-8.94,22.64-28.72,38.33-50.62,48.26-23.8-10.38-43.24-27.71-51.64-52.82-2.7-8.08-5.07-16.05-5.09-24.76l-.13-64.91c22.07-4.1,37.92-11.27,56.88-22.78,19.43,11.88,34.69,18.59,57.43,22.89l-.03,62.9c0,10.94-2.85,21.2-6.8,31.22ZM107.11,191.92c10.64-5.23,19.82-10.88,28.22-18.37,9.13-8.04,15.89-17.67,20.5-28.94,3.84-10.03,6.32-20.24,6.33-31.18l.05-59.68c-21.24-4.01-36.99-11.03-55.21-21.94-17.92,10.71-33.64,17.83-54.6,21.85l.07,60.26c.02,14.7,4.57,28.48,11.43,41.19,9.77,16.64,25.61,29.04,43.22,36.81Z"/>
  <path class="desratizacao_1" d="M107.11,191.92c-17.61-7.77-33.45-20.17-43.22-36.81-6.86-12.71-11.41-26.49-11.43-41.19l-.07-60.26c20.96-4.02,36.68-11.14,54.6-21.85,18.22,10.91,33.97,17.93,55.21,21.94l-.05,59.68c0,10.94-2.5,21.15-6.33,31.18-4.61,11.28-11.37,20.9-20.5,28.94-8.41,7.49-17.58,13.15-28.22,18.37ZM77.42,67.94l38.8.02.06,15.55c0,2.52,2.04,4.31,4.53,4.32l13.93.04.05,25.91c0,.64,1.28,1.56,1.78,1.32.43-.21,1.13-1.15,1.13-1.66l-.09-27.93-19.3-20.46-41.12-.04c-3.57,0-6.19,2.71-5.95,6.29v77.7c-.01,3.23,1.93,6.61,5.51,6.61l35.06.05c.65,0,1.62-.71,1.74-1.21s-.73-1.66-1.29-1.66l-35.1-.02c-1.53,0-3.04-1.06-3.04-2.83v-79.1c0-1.98,1.26-2.89,3.32-2.89ZM105.66,92.14c.47,0,1.39-.74,1.51-1.19s-.76-1.56-1.23-1.56l-20.19-.02c-.7,0-1.62,1.04-1.52,1.59.08.45.99,1.22,1.45,1.22l19.99-.04ZM84.25,101.25v2.88h40.1v-2.88h-40.1ZM116.8,113.02h-32.61s0,3,0,3h32.61s0-3,0-3ZM149.94,138.51c0-10.18-8.25-18.43-18.43-18.43s-18.43,8.25-18.43,18.43,8.25,18.43,18.43,18.43,18.43-8.25,18.43-18.43ZM105.88,127.76c.7,0,1.61-1.21,1.45-1.69s-1.08-1.15-1.63-1.15h-20.02c-.6,0-1.59,1.01-1.55,1.58.04.47,1.02,1.26,1.58,1.26h20.16Z"/>
  <path class="desratizacao_2" d="M77.42,67.94c-2.06,0-3.31.91-3.31,2.89v79.1c0,1.78,1.5,2.83,3.03,2.83l35.1.02c.56,0,1.4,1.16,1.29,1.66s-1.08,1.21-1.74,1.21l-35.06-.05c-3.58,0-5.53-3.38-5.53-6.61v-77.7c-.22-3.58,2.39-6.29,5.96-6.29l41.12.04,19.3,20.46.09,27.93c0,.5-.71,1.45-1.13,1.66-.5.24-1.77-.68-1.78-1.32l-.05-25.91-13.93-.04c-2.49,0-4.52-1.81-4.53-4.32l-.06-15.55-38.8-.02ZM121.44,85.11l11.53-.21-13.76-14.34-.17,12.13c-.07,1.38.81,2.39,2.41,2.42Z"/>
  <path class="desratizacao_2" d="M149.94,138.51c0,10.18-8.25,18.43-18.43,18.43s-18.43-8.25-18.43-18.43,8.25-18.43,18.43-18.43,18.43,8.25,18.43,18.43ZM147.01,138.55c0-8.58-6.95-15.53-15.53-15.53s-15.53,6.95-15.53,15.53,6.95,15.53,15.53,15.53,15.53-6.95,15.53-15.53Z"/>
  <rect class="desratizacao_2" x="84.25" y="101.25" width="40.1" height="2.88"/>
  <rect class="desratizacao_2" x="84.19" y="113.03" width="32.61" height="2.99"/>
  <path class="desratizacao_2" d="M105.88,127.76h-20.16c-.56,0-1.54-.79-1.58-1.26-.05-.57.94-1.57,1.55-1.57h20.02c.55,0,1.46.68,1.63,1.15s-.75,1.69-1.45,1.69Z"/>
  <path class="desratizacao_2" d="M105.66,92.14l-19.99.04c-.46,0-1.37-.77-1.45-1.22-.09-.54.83-1.59,1.52-1.59l20.19.02c.47,0,1.35,1.11,1.23,1.56s-1.03,1.19-1.51,1.19Z"/>
  <path class="desratizacao_1" d="M121.44,85.11c-1.59-.03-2.48-1.04-2.41-2.42l.17-12.13,13.76,14.34-11.53.21Z"/>
  <path class="desratizacao_1" d="M147.01,138.55c0,8.58-6.95,15.53-15.53,15.53s-15.53-6.95-15.53-15.53,6.95-15.53,15.53-15.53,15.53,6.95,15.53,15.53ZM123.67,139.97l5.78,5.66,9.59-10.71c.34-.38.26-1.56-.1-1.9-.29-.27-1.62-.26-1.95.1l-7.62,8.49-3.47-3.43c-.43-.42-1.67-.61-2.12-.3s-.52,1.69-.12,2.08Z"/>
  <path class="desratizacao_2" d="M123.67,139.97c-.4-.39-.31-1.77.12-2.08s1.69-.12,2.12.3l3.47,3.43,7.62-8.49c.33-.36,1.66-.37,1.95-.1.36.34.44,1.52.1,1.9l-9.59,10.71-5.78-5.66Z"/>
</svg>