<?xml version="1.0" encoding="UTF-8"?>
<svg id="ic_documento" data-name="Camada 1" xmlns="http://www.w3.org/2000/svg" viewBox="0 0 214.47 222.64">
  <defs>
    <style>
      .documento_1 {
        fill: #fff;
      }

      .documento_2 {
        fill: #043420;
      }
    </style>
  </defs>
  <path class="documento_2" d="M163.56,153.44c-11.2,24.24-32.56,39.53-56.72,49.84-26.8-11.23-48.13-28.68-58.65-56.14-4.57-11.92-6.35-23.91-6.34-36.75l.04-63.49c0-1.39.92-2.38,2.31-2.57,18.72-2.55,36.23-8.83,52.33-18.62l10.43-6.34c21.07,13.46,38.54,21.53,63.44,25.04,1.36.19,2.24,1.05,2.24,2.49l-.09,67.8c-.02,13.62-3.33,26.54-8.97,38.74ZM106.93,199.77c11.35-5.07,21.28-10.87,30.51-18.42,12.03-9.68,20.74-21.96,26.18-36.42,3.24-9.5,5.66-19.04,5.67-29.32l.1-68.1c-23.97-3.31-42.42-11.5-62.47-24.23l-15.33,8.95c-14.2,8.29-29.92,12.9-46.48,15.16l.16,70.08c.02,10.26,2.77,19.52,6.1,28.97,9.94,25.65,30.55,42.48,55.55,53.33Z"/>
  <path class="documento_1" d="M106.93,199.77c-25-10.85-45.61-27.68-55.55-53.33-3.33-9.45-6.08-18.71-6.1-28.97l-.16-70.08c16.56-2.26,32.28-6.87,46.48-15.16l15.33-8.95c20.05,12.73,38.5,20.92,62.47,24.23l-.1,68.1c-.02,10.28-2.44,19.82-5.67,29.32-5.45,14.46-14.15,26.74-26.18,36.42-9.23,7.54-19.16,13.34-30.51,18.42ZM159.86,140.27c2.48-7.92,4.5-15.73,4.51-24.2l.11-64.22c-22.88-4.34-37.85-10.95-57.57-22.77-18.97,11.42-34.48,18.62-56.68,22.53l.18,65.91c.04,14.57,5.08,28.43,12.43,40.66,9.46,15.74,27.33,28.87,44.01,36.2,24.32-11.22,44.76-27.78,53.02-54.11Z"/>
  <path class="documento_2" d="M159.86,140.27c-8.25,26.33-28.7,42.89-53.02,54.11-16.67-7.33-34.55-20.46-44.01-36.2-7.35-12.23-12.39-26.09-12.43-40.66l-.18-65.91c22.21-3.9,37.71-11.11,56.68-22.53,19.72,11.82,34.69,18.43,57.57,22.77l-.11,64.22c-.01,8.47-2.03,16.28-4.51,24.2ZM106.89,191.98c17.68-8.36,35.52-21.26,44.7-38.27,6.14-11.38,10.33-23.74,10.38-36.87l.23-63.17c-21.12-3.9-37.24-11.17-55.3-21.86-18.42,10.95-33.25,17.67-54.42,21.77l.07,62.07c.02,14.36,4.49,27.73,11.35,40.04,9.99,16.5,25.66,28.03,42.99,36.3Z"/>
  <path class="documento_1" d="M106.89,191.98c-17.33-8.27-33-19.8-42.99-36.3-6.86-12.31-11.34-25.68-11.35-40.04l-.07-62.07c21.17-4.1,36-10.82,54.42-21.77,18.06,10.69,34.18,17.97,55.3,21.86l-.23,63.17c-.05,13.13-4.24,25.49-10.38,36.87-9.18,17.02-27.03,29.91-44.7,38.27ZM106.68,162.15c7.22-3.12,13.46-6.86,19.27-11.72,13.05-10.72,20.19-26.4,20.14-43.31l-.09-28.8c-14.5-2.17-27.33-7.83-38.75-16.7-1.23.28-2.24.74-3.21,1.44-11.04,7.99-23.12,13.27-37.02,15.15l-.02,30.8c-.02,24.41,17.22,44.32,39.69,53.14Z"/>
  <path class="documento_2" d="M106.68,162.15c-22.47-8.82-39.71-28.73-39.69-53.14l.02-30.8c13.9-1.88,25.98-7.16,37.02-15.15.97-.7,1.97-1.16,3.21-1.44,11.43,8.87,24.26,14.52,38.75,16.7l.09,28.8c.05,16.9-7.09,32.59-20.14,43.31-5.81,4.86-12.04,8.6-19.27,11.72ZM106.9,158.56c9.15-4.42,16.54-9.43,23.08-16.49,7.56-8.98,12.65-20.11,12.68-32.08l.09-28.91c-13.25-2.27-25.35-7.71-36.04-15.61l-9.18,5.79c-8.56,4.86-17.49,8.2-27.32,9.65l.09,29.06c.07,21.85,16.46,40.77,36.59,48.6Z"/>
  <path class="documento_1" d="M106.9,158.56c-20.13-7.83-36.52-26.74-36.59-48.6l-.09-29.06c9.83-1.46,18.77-4.8,27.32-9.65l9.18-5.79c10.68,7.9,22.79,13.34,36.04,15.61l-.09,28.91c-.04,11.96-5.12,23.1-12.68,32.08-6.53,7.07-13.92,12.07-23.08,16.49ZM88.48,114.72l12.46,12.66,24.64-28.15c.58-.66.42-1.93-.1-2.44-.41-.39-1.74-.38-2.2.15l-22.51,25.78-10.71-11.11c-.66-.09-1.77.35-2.07.79s0,1.81.5,2.32Z"/>
  <path class="documento_2" d="M88.48,114.72c-.5-.51-.8-1.88-.5-2.32s1.41-.88,2.07-.79l10.71,11.11,22.51-25.78c.46-.53,1.8-.55,2.2-.15.52.51.68,1.78.1,2.44l-24.64,28.15-12.46-12.66Z"/>
</svg>