<?xml version="1.0" encoding="UTF-8"?>
<svg id="ic_email_icon" data-name="Camada 1" xmlns="http://www.w3.org/2000/svg" viewBox="0 0 214.47 222.64">
  <defs>
    <style>
      .email_icon_1 {
        fill: #fff;
      }

      .email_icon_2 {
        fill: #043420;
      }
    </style>
  </defs>
  <path class="email_icon_2" d="M170.52,112.99c-.18,37.53-30.48,66.49-63.34,79.91-13.62-6.08-25.91-13.81-36.72-23.77-16.17-14.9-26.36-35.33-26.41-57.51l-.11-54.53c0-1.4,1.02-2.31,2.35-2.5,22.89-3.3,39.96-11.48,59.1-23.91,1.16-.75,2.33-.95,3.53-.15,19.59,12.92,36.49,20.32,59.81,24.16,1.1.18,2.07,1.13,2.06,2.38l-.27,55.92ZM139.48,168.91c16.74-14.61,27.55-34.54,27.63-56.84l.2-54.05c-23.02-3.78-40.82-11.78-60.07-24.36-19.2,12.62-37.26,20.9-59.79,24.29l.08,53.2c.03,20.89,9.23,40,24.21,54.33,10.41,9.96,22.61,17.6,35.61,23.68,11.84-5.57,22.37-11.74,32.12-20.25Z"/>
  <path class="email_icon_1" d="M139.48,168.91c-9.75,8.51-20.28,14.68-32.12,20.25-13.01-6.08-25.21-13.72-35.61-23.68-14.97-14.33-24.17-33.44-24.21-54.33l-.08-53.2c22.52-3.39,40.59-11.67,59.79-24.29,19.25,12.59,37.05,20.58,60.07,24.36l-.2,54.05c-.08,22.3-10.89,42.23-27.63,56.84ZM161.99,113.06l.2-50.76c-21.09-4.18-36.66-11.39-54.84-22.62-17.53,10.83-34.13,18.89-54.81,22.52l.15,49.89c.06,18.82,8.81,35.91,21.99,49.01,9.44,9.37,20.36,16.37,32.49,22.52,27.87-12.36,54.7-38.4,54.82-70.56Z"/>
  <path class="email_icon_2" d="M161.99,113.06c-.12,32.16-26.94,58.2-54.82,70.56-12.12-6.15-23.05-13.14-32.49-22.52-13.19-13.1-21.94-30.19-21.99-49.01l-.15-49.89c20.68-3.63,37.28-11.7,54.81-22.52,18.18,11.24,33.74,18.44,54.84,22.62l-.2,50.76ZM149.9,145.4c5.73-9.9,9.8-20.66,9.84-32.4l.17-48.86c-19.37-3.73-36.13-11.65-52.62-21.73-16.84,10.38-33.07,17.96-52.47,21.71l.17,48.47c.06,18.27,8.85,34.79,21.76,47.37,9.02,8.79,19.42,15.52,30.6,21.12,17.57-8.79,32.2-19.18,42.55-35.69Z"/>
  <path class="email_icon_1" d="M149.9,145.4c-10.35,16.5-24.98,26.89-42.55,35.69-11.18-5.6-21.57-12.33-30.6-21.12-12.92-12.59-21.7-29.11-21.76-47.37l-.17-48.47c19.4-3.75,35.63-11.33,52.47-21.71,16.48,10.07,33.25,17.99,52.62,21.73l-.17,48.86c-.04,11.74-4.11,22.51-9.84,32.4ZM130.91,142.2l3.96,4.36c.47.51,1.65.49,2.09-.03,1.46-1.71-3.45-3.3-3.9-5.88l-.89-5.1c-.23-1.33.7-4.48-.89-5.3-3.44-1.79-6.66-3.1-10.35-4.64l-1.51-7.43,9.42-3.71,1.61,2.45c.32.5,1.31.74,2.01.36,1.54-.84-2.17-5.43-3.48-5.43l-10.39,3.8-2.26-5.27,13.2-8.2c.76-4.12-.37-6.47.22-11.44l1.92-2.88c.29-.43-.17-1.8-.66-1.87-.39-.05-1.28.32-1.5.68l-2.34,3.72-.03,10.34-8.04,4.99c1.52-5.17.07-9.1-2.31-13.35-.05-1.99.38-5.05-1.6-6.86,5.37-6.83-.31-6.89,4.95-14.54,1.01-.41,2.8-1.22,3.09-2.32.09-.34-.58-1.49-.89-1.44-1.61.22-4.25,2.86-5.28,4.09-4.45,5.26,1.63,9.8-5.75,14.22l-1.68,2.39-5.45.07c-1.22-4.02-6-3.54-5.34-9.54.32-2.84-.46-5.8-2.5-7.76l-2.97-2.85c-.31-.29-1.22-.7-1.61-.51s-.93.99-.83,1.4c.41,1.6,6.29,3.22,5.35,9.31-.42,2.77,1.38,5.21,1.9,7.55-.51,1.77-1.18,4.94-1.03,6.92-1.92,3.86-3.71,8.15-1.89,13.21l-8.14-5c-.35-9.76,1.75-7.88-2.67-14.37-.25-.37-1.64-.26-1.79.16s-.05,1.52.31,1.89c3.37,3.47.23,3.55,2.93,6.18-2.02.73-1.5,6.49-.69,8.02l12.83,7.99-2.6,5.19c-3.34-1.31-6.4-2.61-9.83-3.76-1.74-.58-4.71,3.9-4.43,5.23.1.47,1.57,1.08,1.83.7l2.35-3.45,9.3,3.83-1.43,7.13-10.76,5.04-1.32,10.52c-.1.82-.63,2.28-.85,3.32-.26-.18-1-.93-1.31-.71l-1.35.94c-.46.33-.9,1.59-.55,2.03.46.58,1.66.52,2.11.04l3.87-4.06c.97-1.02.75-3.33.93-4.84l.68-5.61,8.29-3.56c-.32,9.14.78,19.46,7.61,25.99,3.44,3.3,8.13,3.79,11.92.89,7.47-5.72,9.09-17.61,8.67-26.69l8.35,3.31,1.34,10.14ZM138.54,124.23c.41.13,1.32-1.2,1.05-1.49-.2-.22-.69-.72-.97-.93l-4.62-3.35c-.32-.13-1.59.21-1.62.61-.15,2.3,4.05,4.49,6.16,5.15ZM75.97,124.31c1.69-.8,3.99-2.19,5.23-3.29.31-.27.81-1.61.44-1.75-.3-.11-1.38-.45-1.65-.28l-4.5,2.82c-.37.23-.85.98-1,1.35s1.08,1.34,1.49,1.15Z"/>
  <path class="email_icon_2" d="M130.91,142.2l-1.34-10.14-8.35-3.31c.42,9.08-1.2,20.97-8.67,26.69-3.79,2.91-8.48,2.41-11.92-.89-6.83-6.54-7.93-16.85-7.61-25.99l-8.29,3.56-.68,5.61c-.18,1.51.04,3.82-.93,4.84l-3.87,4.06c-.46.48-1.65.54-2.11-.04-.35-.44.08-1.7.55-2.03l1.35-.94c.31-.22,1.05.53,1.31.71.22-1.03.75-2.5.85-3.32l1.32-10.52,10.76-5.04,1.43-7.13-9.3-3.83-2.35,3.45c-.26.38-1.73-.23-1.83-.7-.28-1.33,2.69-5.82,4.43-5.23,3.43,1.15,6.49,2.45,9.83,3.76l2.6-5.19-12.83-7.99c-.81-1.53-1.33-7.29.69-8.02-2.7-2.63.44-2.71-2.93-6.18-.36-.37-.46-1.47-.31-1.89s1.54-.53,1.79-.16c4.42,6.49,2.32,4.61,2.67,14.37l8.14,5c-1.83-5.06-.04-9.35,1.89-13.21-.15-1.97.52-5.15,1.03-6.92-.52-2.34-2.33-4.79-1.9-7.55.93-6.1-4.95-7.72-5.35-9.31-.1-.41.44-1.22.83-1.4s1.3.22,1.61.51l2.97,2.85c2.04,1.96,2.82,4.92,2.5,7.76-.67,6,4.12,5.52,5.34,9.54l5.45-.07,1.68-2.39c7.38-4.42,1.3-8.96,5.75-14.22,1.03-1.22,3.67-3.87,5.28-4.09.32-.04.99,1.1.89,1.44-.29,1.09-2.08,1.9-3.09,2.32-5.27,7.65.41,7.71-4.95,14.54,1.98,1.81,1.55,4.87,1.6,6.86,2.38,4.25,3.83,8.18,2.31,13.35l8.04-4.99.03-10.34,2.34-3.72c.23-.36,1.11-.73,1.5-.68.49.07.95,1.43.66,1.87l-1.92,2.88c-.59,4.97.54,7.32-.22,11.44l-13.2,8.2,2.26,5.27,10.39-3.8c1.31,0,5.02,4.6,3.48,5.43-.7.38-1.69.13-2.01-.36l-1.61-2.45-9.42,3.71,1.51,7.43c3.69,1.55,6.91,2.85,10.35,4.64,1.59.83.66,3.98.89,5.3l.89,5.1c.45,2.58,5.35,4.17,3.9,5.88-.44.52-1.62.54-2.09.03l-3.96-4.36ZM116.77,100.58c0-5.33-4.32-9.65-9.65-9.65s-9.65,4.32-9.65,9.65,4.32,9.65,9.65,9.65,9.65-4.32,9.65-9.65ZM102.96,152.42c2.68,2.38,5.99,2.23,8.47-.06,2.8-2.58,4.54-6.23,5.39-9.78l-3.9-.66c-.4-.07-.57-1.5-.22-1.75.28-.19,1.11-.53,1.57-.53h3.38c.74-4.44.82-8.63.28-13.18l-4.17.31c-.51.04-1.4-1.14-1.17-1.57.18-.34.87-.92,1.25-.98l3.61-.56c-.67-4.19-1.99-7.99-3.91-11.92-4.27,1.43-8.23,1.43-12.73.11-2.07,3.78-3.29,7.32-4.11,11.63l3,.76c.52.13,1.42.81,1.38,1.3s-1.03,1.27-1.53,1.22l-3.45-.32c-.25,4.47-.21,8.69.52,12.99l4.47.37c.42.03.54,1.65.2,1.9-.25.19-.83.51-1.15.54l-2.71.2c.97,3.86,2.59,7.38,5.53,10Z"/>
  <path class="email_icon_2" d="M75.97,124.31c-.41.19-1.64-.78-1.49-1.15s.63-1.12,1-1.35l4.5-2.82c.27-.17,1.36.16,1.65.28.37.14-.13,1.48-.44,1.75-1.24,1.1-3.54,2.49-5.23,3.29Z"/>
  <path class="email_icon_2" d="M138.54,124.23c-2.1-.65-6.3-2.85-6.16-5.15.03-.4,1.3-.74,1.62-.61l4.62,3.35c.28.2.77.71.97.93.27.29-.64,1.62-1.05,1.49Z"/>
  <path class="email_icon_1" d="M102.96,152.42c-2.94-2.62-4.56-6.15-5.53-10l2.71-.2c.33-.02.9-.35,1.15-.54.34-.25.21-1.86-.2-1.9l-4.47-.37c-.73-4.3-.77-8.52-.52-12.99l3.45.32c.5.05,1.49-.73,1.53-1.22s-.86-1.17-1.38-1.3l-3-.76c.82-4.31,2.04-7.85,4.11-11.63,4.51,1.32,8.46,1.33,12.73-.11,1.92,3.93,3.24,7.73,3.91,11.92l-3.61.56c-.38.06-1.07.64-1.25.98-.22.43.66,1.61,1.17,1.57l4.17-.31c.54,4.55.46,8.74-.28,13.18h-3.38c-.45,0-1.28.34-1.57.54-.36.24-.18,1.68.22,1.75l3.9.66c-.84,3.54-2.58,7.19-5.39,9.78-2.48,2.29-5.8,2.44-8.47.06Z"/>
  <circle class="email_icon_1" cx="107.12" cy="100.58" r="9.65"/>
</svg>