<?xml version="1.0" encoding="UTF-8"?>
<svg id="ic_empresas" data-name="Camada 1" xmlns="http://www.w3.org/2000/svg" viewBox="0 0 214.47 222.64">
  <defs>
    <style>
      .empresas_1 {
        fill: #fff;
      }

      .empresas_2 {
        fill: #043420;
      }
    </style>
  </defs>
  <path class="empresas_2" d="M107.47,193.56c-10.35-4.33-19.3-9.5-28.05-15.74-20.74-14.78-36.29-37.78-36.38-63.73l-.2-55.63c0-1.7,1.08-2.72,2.7-2.9,23.25-3.51,42.01-13.01,61.85-25.76,20.16,13.22,38.25,21.98,62.41,25.79,1.15.21,2.11,1.12,2.1,2.38l-.14,56.42c-.05,18.61-8.03,35.77-20.35,49.36s-27.45,22.74-43.94,29.81ZM107.48,189.8c16.94-7.62,31.99-17.37,43.86-31.34,10.29-12.68,16.92-27.94,16.95-44.56l.1-54.91c-23.22-3.92-41.72-12.27-61.01-25.07-19.16,12.31-38.32,21.51-60.93,25.03l.05,53.07c.02,20.4,8.73,39.06,23.32,53.11,10.89,10.49,23.67,18.32,37.66,24.67Z"/>
  <path class="empresas_1" d="M107.48,189.8c-14-6.34-26.78-14.18-37.66-24.67-14.59-14.05-23.3-32.71-23.32-53.11l-.05-53.07c22.61-3.52,41.77-12.72,60.93-25.03,19.28,12.8,37.79,21.15,61.01,25.07l-.1,54.91c-.03,16.62-6.66,31.88-16.95,44.56-11.86,13.96-26.91,23.72-43.86,31.34ZM107.42,184.27c19.12-9.09,37.46-22.11,47.61-40.63,4.73-9.39,8.01-19.03,8.02-29.73l.04-50.65c-16.13-3.22-31.03-8.66-44.91-16.81l-10.81-6.34c-18.01,11.03-34.78,19.07-55.6,23.18l.15,51.13c.04,15.11,6.41,28.91,15.64,40.49,10.74,12.82,24.55,21.99,39.86,29.37Z"/>
  <path class="empresas_2" d="M107.42,184.27c-15.31-7.38-29.12-16.55-39.86-29.37-9.23-11.58-15.6-25.38-15.64-40.49l-.15-51.13c20.82-4.11,37.6-12.15,55.6-23.18l10.81,6.34c13.89,8.15,28.79,13.59,44.91,16.81l-.04,50.65c0,10.71-3.3,20.34-8.02,29.73-10.14,18.52-28.48,31.54-47.61,40.63ZM107.6,181.67c11.88-5.79,22.44-12.51,31.67-21.39,12.77-12.01,20.53-27.8,21.53-45.41l.04-49.76c-20.03-4.18-36.51-11.74-53.41-22.29-17.03,10.33-33.63,18.23-53.36,22.27l-.02,45.5c0,11.79,2.64,22.76,8.48,32.95,9.39,16.91,27.72,30.06,45.07,38.13Z"/>
  <path class="empresas_1" d="M107.6,181.67c-17.35-8.06-35.68-21.21-45.07-38.13-5.84-10.19-8.48-21.16-8.48-32.95l.02-45.5c19.73-4.03,36.34-11.93,53.36-22.27,16.9,10.54,33.38,18.11,53.41,22.29l-.04,49.76c-1,17.61-8.77,33.4-21.53,45.41-9.23,8.88-19.79,15.6-31.67,21.39ZM126.21,133.7l4.25,2.16,1.3,8.97,3.71,3.87c.36.38,1.73.34,2.01-.07s.18-1.77-.22-2.16l-2.87-2.78-1.32-9.57-5.9-3.21c.66-3.96.9-7.54.9-11.52l6.02-.03,3.6,7.35s4.11,4.55,5.45,2.89c.25-.31.15-1.56-.17-1.82l-3.2-2.63-4.05-8.54-8.08-.07-1.61-5.21,8.27-3.45,2.08-8.45c1.38-2.16,3.57-2.28,3.1-4.57-.49-2.37-5.13,2.24-5.49,3.56l-2.13,7.79-7.22,2.58-3.96-4.86c1.9-5.41-.17-10.96-4.94-14.44.69-5.49,3.95-10.3,9.2-12.45.66-.27,1.25-1.46.97-1.98-.33-.62-1.56-.93-2.27-.64-5.67,2.35-9.07,7.2-10.65,13.28-3.78-1.23-7.55-1.4-11.5.13-1.68-6.16-5.34-11.03-11.23-13.49-.47-.19-1.63.23-1.86.67s.25,1.65.72,1.87c5.21,2.42,8.82,7.02,9.55,12.63-4.84,3.26-6.91,9.09-4.98,14.39l-3.91,4.77-7.12-2.43-2.38-8.27-3.25-3.38c-.39-.41-1.72-.31-2.06.12-1.33,1.67,2.56,3.52,2.95,4.85l2.57,8.74,7.9,3.05-1.77,5.15-8.28.16-3.98,8.65-3.04,2.61c-.32.28-.52,1.22-.3,1.56,1.22,1.95,5.54-2.61,5.65-2.86l3.29-7.25,6.28.08c-.17,4.23.13,7.61.84,11.5l-5.82,3.12-1.26,9.57-3.22,3.3c-.32.33-.26,1.6.13,1.83.31.18,1.51.23,1.78-.06l4.03-4.3,1-8.53,4.33-2.13c2.03,4.72,4.44,8.58,8.27,11.48,6.5,4.93,15.05,5.08,21.51.19,3.99-3.02,6.53-6.82,8.43-11.72Z"/>
  <path class="empresas_2" d="M126.21,133.7c-1.91,4.89-4.44,8.69-8.43,11.72-6.46,4.9-15.01,4.74-21.51-.19-3.83-2.9-6.24-6.76-8.27-11.48l-4.33,2.13-1,8.53-4.03,4.3c-.27.29-1.47.24-1.78.06-.39-.23-.45-1.5-.13-1.83l3.22-3.3,1.26-9.57,5.82-3.12c-.72-3.9-1.02-7.27-.84-11.5l-6.28-.08-3.29,7.25c-.12.25-4.43,4.81-5.65,2.86-.22-.35-.02-1.29.3-1.56l3.04-2.61,3.98-8.65,8.28-.16,1.77-5.15-7.9-3.05-2.57-8.74c-.39-1.33-4.27-3.18-2.95-4.85.34-.43,1.67-.53,2.06-.12l3.25,3.38,2.38,8.27,7.12,2.43,3.91-4.77c-1.92-5.3.14-11.13,4.98-14.39-.72-5.61-4.34-10.2-9.55-12.63-.47-.22-.95-1.42-.72-1.87s1.4-.87,1.86-.67c5.89,2.46,9.55,7.33,11.23,13.49,3.95-1.53,7.71-1.37,11.5-.13,1.58-6.08,4.98-10.93,10.65-13.28.72-.3,1.94.02,2.27.64.27.52-.32,1.71-.97,1.98-5.26,2.14-8.51,6.95-9.2,12.45,4.77,3.48,6.84,9.03,4.94,14.44l3.96,4.86,7.22-2.58,2.13-7.79c.36-1.32,5-5.93,5.49-3.56.47,2.29-1.72,2.41-3.1,4.57l-2.08,8.45-8.27,3.45,1.61,5.21,8.08.07,4.05,8.54,3.2,2.63c.33.27.42,1.52.17,1.82-1.34,1.66-5.43-2.85-5.45-2.89l-3.6-7.35-6.02.03c0,3.98-.24,7.56-.9,11.52l5.9,3.21,1.32,9.57,2.87,2.78c.4.39.5,1.75.22,2.16s-1.65.45-2.01.07l-3.71-3.87-1.3-8.97-4.25-2.16ZM117.8,102.75c2.25-7.12-3.89-12.48-9.94-12.9-4.09-.28-7.81,1.63-10.22,4.99-1.7,2.37-2.13,5.39-.94,7.93l21.1-.02ZM105.53,145.77v-39.92s-9.21.02-9.21.02c-9.03,7.79-8.96,22.72-2.65,32.04,2.76,4.07,6.64,7.11,11.86,7.87ZM118.14,105.86h-9.53s.05,39.95.05,39.95c4.65-.63,7.66-2.88,10.33-5.91,7.86-8.93,8.46-25.39-.85-34.04Z"/>
  <path class="empresas_1" d="M105.53,145.77c-5.22-.76-9.1-3.8-11.86-7.87-6.32-9.32-6.38-24.25,2.65-32.04l9.22-.02v39.92Z"/>
  <path class="empresas_1" d="M118.14,105.86c9.31,8.65,8.71,25.11.85,34.04-2.67,3.04-5.69,5.28-10.33,5.91l-.05-39.96h9.53Z"/>
  <path class="empresas_1" d="M117.8,102.75l-21.1.02c-1.2-2.53-.76-5.56.94-7.93,2.41-3.36,6.13-5.27,10.22-4.99,6.05.42,12.19,5.78,9.94,12.9Z"/>
</svg>