<?xml version="1.0" encoding="UTF-8"?>
<svg id="ic_endereco" data-name="Camada 1" xmlns="http://www.w3.org/2000/svg" viewBox="0 0 214.47 222.64">
  <defs>
    <style>
      .endereco_1 {
        fill: #fff;
      }

      .endereco_2 {
        fill: #043420;
      }
    </style>
  </defs>
  <path class="endereco_2" d="M170.6,180.2c-.02.57-1.65,1.03-2.35,1.03H44.28c-.18-2.91-1.61-11.38,1.5-11.4l4.48-.02.06-7.92c0-.74,1.44-1.52,2.12-1.52l6.26-.02.18-7.47c.02-.87,2.25-1.38,3.46-1.39l.02-35.46c-.88-.05-3.28-.5-3.38-1.33l-.26-7.59-9.99-.02c-.63,0-1.74-1.03-1.73-1.65l.21-8.25,58.01-31.91.07-22.05c0-.82,1.26-1.83,2-1.76.67.07,1.43,1.41,2.07,2.23l23.51.15.22,13.7c.01.69-.96,1.78-1.71,1.78h-22.39s-.08,5.79-.08,5.79l58.7,31.95c.49,3.33.46,6.48.05,9.92l-11.74.17-.22,7.4c-.03.85-2.13,1.39-3.16,1.51l.02,35.2c1.17.4,2.41.86,3.2,1.28l.19,7.78,7.55.08c.45,0,1.26,1.09,1.27,1.54l.09,7.75,5.68.46c.14,3.34.18,6.87.05,10.03ZM129.39,55.6v-8.11s-20.5,0-20.5,0l.05,8.11h20.45ZM164.17,103.34l-.05-3.81-56.99-31.05-56.08,30.9c-.15,1.46-.17,2.53-.1,3.97h113.21ZM62.37,107.07v5.26s15.72.02,15.72.02v-5.26s-15.72-.02-15.72-.02ZM95.8,160.38l.21-7.4c.03-.97,2.37-1.46,3.34-1.62l-.04-35.39c-1.18-.03-3.3-.53-3.32-1.31l-.23-7.56h-13.99s-.15,7.38-.15,7.38c-.02.9-1.92,1.47-3.29,1.43v35.63c.97,0,3.22.44,3.24,1.34l.23,7.48,13.98.03ZM115.21,112.29l-.14-5.2-15.58.02v5.21s15.72-.02,15.72-.02ZM132.88,160.32l.15-7.67c.56-.66,2.04-1.06,3.35-1.19v-35.49c-1.24-.15-2.41-.29-2.87-.64s-.69-1.62-.68-2.27l.07-5.97-14.03.02-.17,7.45c-.02.85-2.12,1.37-3.08,1.48l.04,35.45c1.2.12,3.02.7,3.04,1.5l.21,7.41,13.97-.09ZM152.23,107.07l-15.73.04v5.22s15.75-.04,15.75-.04v-5.22ZM74.63,115.89h-8.67v35.66h8.67v-35.66ZM103.07,115.92v35.64s8.95,0,8.95,0v-35.64s-8.95,0-8.95,0ZM148.93,115.93h-8.86v35.63h8.86v-35.63ZM78.08,155.16h-15.67v5.22h15.67v-5.22ZM115.21,160.36l-.04-5.19h-15.69s-.04,5.21-.04,5.21l15.77-.02ZM152.28,155.15l-15.79.04v5.22s15.81-.04,15.81-.04v-5.22ZM166.82,177.48l.25-3.97-5.82-.41-.28-9.02-106.9.03-.12,7.69c0,.6-1.15,1.57-1.77,1.58l-4.58.1.13,4h119.08Z"/>
  <path class="endereco_1" d="M164.17,103.34H50.96c-.07-1.43-.05-2.5.1-3.96l56.08-30.9,56.99,31.05.05,3.81Z"/>
  <path class="endereco_1" d="M166.82,177.48H47.74s-.13-4-.13-4l4.58-.1c.62-.01,1.76-.98,1.77-1.58l.12-7.69,106.9-.03.28,9.02,5.82.41-.25,3.97Z"/>
  <path class="endereco_1" d="M95.8,160.38l-13.98-.03-.23-7.48c-.03-.9-2.28-1.35-3.25-1.34v-35.63c1.38.03,3.28-.53,3.29-1.43l.15-7.37h13.99s.23,7.56.23,7.56c.02.78,2.14,1.29,3.32,1.31l.04,35.39c-.97.16-3.31.65-3.34,1.62l-.21,7.4Z"/>
  <path class="endereco_1" d="M132.88,160.32l-13.97.09-.21-7.41c-.02-.8-1.84-1.37-3.04-1.5l-.04-35.45c.96-.12,3.06-.64,3.08-1.48l.17-7.45,14.03-.02-.07,5.97c0,.65.22,1.92.68,2.27s1.63.5,2.88.64v35.49c-1.31.13-2.8.53-3.36,1.19l-.15,7.67Z"/>
  <rect class="endereco_1" x="140.07" y="115.93" width="8.86" height="35.63"/>
  <rect class="endereco_1" x="89.72" y="129.27" width="35.64" height="8.96" transform="translate(-26.23 241.26) rotate(-89.99)"/>
  <rect class="endereco_1" x="65.97" y="115.89" width="8.67" height="35.66"/>
  <polygon class="endereco_1" points="129.39 55.6 108.93 55.59 108.88 47.48 129.4 47.49 129.39 55.6"/>
  <rect class="endereco_1" x="136.51" y="107.09" width="15.73" height="5.22" transform="translate(-.27 .36) rotate(-.14)"/>
  <rect class="endereco_1" x="62.41" y="155.16" width="15.67" height="5.22"/>
  <rect class="endereco_1" x="136.49" y="155.17" width="15.79" height="5.22" transform="translate(-.35 .32) rotate(-.13)"/>
  <polygon class="endereco_1" points="115.21 160.36 99.43 160.38 99.47 155.18 115.17 155.17 115.21 160.36"/>
  <polygon class="endereco_1" points="115.21 112.29 99.48 112.31 99.48 107.1 115.07 107.08 115.21 112.29"/>
  <rect class="endereco_1" x="67.6" y="101.85" width="5.26" height="15.72" transform="translate(-39.57 179.81) rotate(-89.93)"/>
</svg>