<?xml version="1.0" encoding="UTF-8"?>
<svg id="ic_horario" data-name="Camada 1" xmlns="http://www.w3.org/2000/svg" viewBox="0 0 214.47 222.64">
  <defs>
    <style>
      .horario_1 {
        fill: #fff;
      }

      .horario_2 {
        fill: #043420;
      }
    </style>
  </defs>
  <path class="horario_2" d="M159.08,169.3l-105-.08c-4.98,0-8.93-4.97-8.93-9.65v-78.24c-.01-5.11,4.3-9.41,9.34-9.43l25.53-.09.09-9.07c.05-5.04,4.32-9.41,9.53-9.41l36.03.02c4.87,0,9.19,4.31,9.28,8.99l.19,9.51,24.25-.02c5.39,0,9.95,3.83,9.95,9.51l-.03,78.68c0,5.52-4.74,9.28-10.22,9.27ZM131.17,71.84l-.07-9c-.02-2.9-2.85-5.74-5.88-5.74h-35.63c-3.17,0-5.62,3.19-5.62,6.11l.02,8.65,47.18-.02ZM97.67,111.59l22.06.1.19,8.9c7.1.13,43.25-2.52,45.44-10.95l.04-28.29c0-3.17-2.91-5.72-6.13-5.72H55.5c-3.53,0-6.29,2.66-6.29,6.13v27.12c-.01,9.2,39.39,11.84,46.33,11.7l.03-6.61c0-1.22.79-2.38,2.11-2.38ZM116.24,129.42l-.03-13.97-16.81.06.03,13.92h16.82ZM119.93,124.43l-.03,7.32c0,.66-1.03,1.64-1.83,1.64l-20.89-.04c-.59,0-1.59-1.05-1.59-1.62l-.06-7.3c-14.66-.47-32.87-1.7-46.39-8.15l.07,43.24c0,3.43,3.07,5.76,6.3,5.76h104.27c2.96,0,5.65-2.85,5.66-5.76l.02-43.28c-12.77,6.34-31.26,7.77-45.53,8.18Z"/>
  <path class="horario_1" d="M97.67,111.59c-1.32,0-2.1,1.16-2.11,2.38l-.03,6.61c-6.93.15-46.34-2.5-46.34-11.7v-27.12c.01-3.48,2.78-6.14,6.3-6.14h103.78c3.22,0,6.13,2.56,6.13,5.73l-.04,28.29c-2.19,8.43-38.35,11.08-45.44,10.95l-.19-8.9-22.06-.1Z"/>
  <path class="horario_1" d="M119.93,124.43c14.27-.42,32.76-1.85,45.53-8.18l-.02,43.28c0,2.92-2.7,5.76-5.66,5.76H55.51c-3.23,0-6.29-2.33-6.3-5.76l-.07-43.24c13.51,6.45,31.73,7.69,46.39,8.15l.06,7.3c0,.57,1,1.62,1.59,1.62l20.89.04c.8,0,1.83-.98,1.83-1.64l.03-7.32Z"/>
  <path class="horario_1" d="M131.17,71.84l-47.18.02-.02-8.65c0-2.92,2.45-6.11,5.62-6.11h35.63c3.03,0,5.86,2.84,5.88,5.74l.07,9Z"/>
  <polygon class="horario_1" points="116.24 129.42 99.42 129.43 99.39 115.51 116.2 115.46 116.24 129.42"/>
</svg>