<?xml version="1.0" encoding="UTF-8"?>
<svg id="ic_laudo" data-name="Camada 1" xmlns="http://www.w3.org/2000/svg" viewBox="0 0 214.47 222.64">
  <defs>
    <style>
      .laudo_1 {
        fill: #fff;
      }

      .laudo_2 {
        fill: #043420;
      }
    </style>
  </defs>
  <path class="laudo_2" d="M158.76,180.14H56.26c-1.74,0-2.81-1.39-2.8-2.9l.12-15.52c.03-4.62,3.14-8.18,7.17-9.84,9.69-3.97,19.23-7.11,29.58-9.86l-9.44-14.72c-4.32-6.73-8.29-13.29-11.61-20.55-7.92-17.34-4.62-37.38,8.94-50.86,9.53-9.47,22.51-13.83,36.35-11.68,11.69,1.81,22.85,9.21,29.35,20.26,7.3,12.4,8.19,27.41,2.61,40.84-2.47,5.95-5.42,11.32-8.88,16.77l-12.66,19.92c10.57,2.57,20.5,5.7,30.41,9.99,3.38,1.46,5.83,4.68,5.83,8.47l.04,17.29c0,.95-1.04,2.4-2.51,2.4ZM107.65,160.43l16.78-25.39c4.97-7.52,9.52-14.86,14.06-22.62,2.45-4.58,4.58-8.94,5.95-13.94,3.43-12.53.97-25.61-6.88-35.76-13.25-17.11-37.73-19.83-54.22-5.77-13.43,11.45-17.74,30.25-10.84,46.61,2.27,5.39,4.81,10.24,8.05,15.21l27.11,41.65ZM153.08,155.53c-10.14-4.09-19.85-7.44-30.58-9.72l-13.09,19.49c-.35.51-1.61,1-2.14.91s-1.42-.76-1.79-1.32l-12.74-19.16c-10.86,2.79-21.03,6.14-31.22,10.39-2.39,1-3.91,3.81-3.91,6.36v13.51s99.67,0,99.67,0l-.07-15.29c-.01-2.56-1.8-4.24-4.14-5.18Z"/>
  <path class="laudo_1" d="M107.65,160.43l-27.11-41.65c-3.24-4.98-5.77-9.82-8.05-15.21-6.9-16.36-2.59-35.16,10.84-46.61,16.48-14.06,40.96-11.34,54.22,5.77,7.86,10.14,10.31,23.23,6.88,35.76-1.37,5-3.5,9.36-5.95,13.94-4.54,7.76-9.09,15.1-14.06,22.62l-16.78,25.39ZM126.85,87.64c0-10.67-8.65-19.32-19.32-19.32s-19.32,8.65-19.32,19.32,8.65,19.32,19.32,19.32,19.32-8.65,19.32-19.32Z"/>
  <path class="laudo_1" d="M153.08,155.53c2.34.94,4.13,2.62,4.14,5.18l.07,15.29H57.61s0-13.52,0-13.52c0-2.55,1.52-5.37,3.91-6.36,10.19-4.25,20.36-7.61,31.22-10.39l12.74,19.16c.37.56,1.26,1.24,1.79,1.32s1.8-.4,2.14-.91l13.09-19.49c10.73,2.28,20.44,5.63,30.58,9.72Z"/>
  <path class="laudo_2" d="M126.85,87.64c0,10.67-8.65,19.32-19.32,19.32s-19.32-8.65-19.32-19.32,8.65-19.32,19.32-19.32,19.32,8.65,19.32,19.32ZM122.63,87.64c0-8.35-6.77-15.12-15.12-15.12s-15.12,6.77-15.12,15.12,6.77,15.12,15.12,15.12,15.12-6.77,15.12-15.12Z"/>
  <circle class="laudo_1" cx="107.51" cy="87.64" r="15.12"/>
</svg>