<?xml version="1.0" encoding="UTF-8"?>
<svg id="ic_limpeza_caixa" data-name="Camada 1" xmlns="http://www.w3.org/2000/svg" viewBox="0 0 214.47 222.64">
  <defs>
    <style>
      .limpeza_caixa_1 {
        fill: #fff;
      }

      .limpeza_caixa_2 {
        fill: #043420;
      }
    </style>
  </defs>
  <path class="limpeza_caixa_2" d="M157.04,182.67l-97.87.12c-5.11,0-9.38-3.42-9.67-8.68-.17-2.96-.13-6.01-.13-9.03,0-1.86,1.41-2.78,3.04-2.89l2.82-.18-2.78-61.47c-2-.43-2.19-1.66-2.22-3.22l-.43-20.54c-.82-.67-5.71.62-5.7-2.39v-7.35c.01-2.89,2.23-4.54,4.81-5.16l37.25-9.02.08-5.89c.05-3.81,3.05-7.12,7.04-7.12l28.43.03c3.61,0,6.46,3.28,6.54,6.62l.16,6.36,38.01,9.17c2.29.55,3.91,2.56,3.92,4.89l.02,7.7c0,.57-1.1,1.81-1.72,1.85l-3.99.22-.38,20.63c-.03,1.53-.21,2.69-2.11,3.25l-2.97,61.45,2.91.19c1.74.11,3.27.97,3.23,2.95l-.15,8.55c-.07,3.76-3.36,8.96-8.15,8.97ZM124.29,52.53l.04-5.5c.01-1.29-1.3-3.08-2.73-3.08h-28.28c-1.57-.01-3.16,1.36-3.12,3l.15,5.6,33.93-.02ZM166.25,72.52c.35-2.22.33-4.09-.14-6.4l-40.08-9.62-37.96.05-39.61,9.63c-.54,2.16-.57,4.22-.18,6.34h117.96ZM155.06,162.22l3.04-61.67h-28.73c-1.14-.22-2.16-1.37-1.92-2.44.19-.87,1.29-1.6,2.35-1.66h30.41s.47-19.9.47-19.9H53.84s.33,19.9.33,19.9h30.56c1.29-.04,2.4.84,2.41,2.06,0,.86-.95,1.74-1.99,2.04h-28.64s2.73,61.64,2.73,61.64l95.81.02ZM156.41,178.72c2.97,0,4.78-3.23,4.77-5.42v-6.98s-107.71-.02-107.71-.02c-.27,3.59-1.27,12.45,4.77,12.45l98.17-.02Z"/>
  <path class="limpeza_caixa_1" d="M155.06,162.22l-95.81-.02-2.73-61.65h28.64c1.04-.29,2-1.17,1.99-2.03-.01-1.22-1.12-2.1-2.41-2.06h-30.56s-.33-19.9-.33-19.9h106.84s-.47,19.9-.47,19.9h-30.41c-1.06.06-2.16.78-2.35,1.66-.24,1.07.78,2.23,1.92,2.45h28.73s-3.04,61.66-3.04,61.66ZM117.75,107.95l-8.68-12.74c-.39-.57-1.57-1.32-2.17-1.14-.5.15-1.2.96-1.6,1.54l-12.8,18.91c-3.12,4.62-4.72,9.98-4.36,15.4.63,9.44,7.6,16.8,16.44,18.04,9.17,1.29,17.71-4.1,20.77-12.92,3.71-10.69-2.1-19.02-7.61-27.11Z"/>
  <path class="limpeza_caixa_1" d="M166.25,72.52H48.29c-.39-2.12-.37-4.18.18-6.34l39.61-9.63,37.96-.05,40.08,9.62c.47,2.31.49,4.18.14,6.4Z"/>
  <path class="limpeza_caixa_1" d="M156.41,178.72l-98.17.02c-6.04,0-5.04-8.85-4.77-12.45l107.7.02v6.98c.02,2.19-1.79,5.42-4.76,5.42Z"/>
  <path class="limpeza_caixa_1" d="M124.29,52.53l-33.93.02-.15-5.6c-.04-1.63,1.54-3.01,3.12-3.01h28.28c1.43.01,2.74,1.8,2.73,3.09l-.04,5.5Z"/>
  <path class="limpeza_caixa_2" d="M117.75,107.95c5.51,8.09,11.32,16.42,7.61,27.11-3.06,8.82-11.6,14.21-20.77,12.92-8.84-1.25-15.8-8.61-16.44-18.04-.36-5.43,1.24-10.79,4.36-15.4l12.8-18.91c.4-.59,1.09-1.39,1.6-1.54.6-.18,1.78.57,2.17,1.14l8.68,12.74ZM121.54,122.96c-1.18-3.25-2.81-6.48-4.81-9.35l-9.39-13.5-9.91,14.14c-1.73,2.47-3.14,5.21-4.24,8.01-2.59,6.62-.76,14.16,4.82,18.6,4.05,3.22,9.17,4.2,14.26,2.44,8-2.77,12.14-12.44,9.27-20.33Z"/>
  <path class="limpeza_caixa_1" d="M121.54,122.96c2.87,7.89-1.27,17.57-9.27,20.33-5.1,1.76-10.22.78-14.26-2.44-5.58-4.44-7.41-11.98-4.82-18.6,1.1-2.8,2.5-5.54,4.24-8.01l9.91-14.14,9.39,13.5c2,2.87,3.63,6.1,4.81,9.35Z"/>
</svg>