<?xml version="1.0" encoding="UTF-8"?>
<svg id="ic_primeiro_contato" data-name="Camada 1" xmlns="http://www.w3.org/2000/svg" viewBox="0 0 214.47 222.64">
  <defs>
    <style>
      .primeiro_contato_1 {
        fill: #fff;
      }

      .primeiro_contato_2 {
        fill: #043420;
      }
    </style>
  </defs>
  <path class="primeiro_contato_2" d="M64.03,55.73l-11.05-.04c-3.28-.01-6.79,2.41-6.79,6.22l-.02,107.86c0,3.15,2.65,6.34,5.96,6.35l80.57.03c6.96,0,5.6-4.99,8.72-4.78.62.04,1.94,1.22,1.76,1.82-1.28,4.23-5.06,7.03-9.51,7.03l-81.52-.02c-5.1,0-9.97-4.63-9.97-9.89l-.04-108.45c0-5.7,5.05-10.08,10.33-10.1l11.5-.03c.08-3.96,2.82-6.62,6.61-6.64l5.76-.03c1.83-7.91,8.52-13.14,16.34-13.15,7.8,0,14.44,5.45,16.22,13.23l5.37-.07c3.87-.05,6.84,2.48,6.69,6.65l11.86-.03c5.48-.01,11,3.84,11.01,9.82l.06,35.38c0,.83-1.22,1.85-1.86,1.92s-2.12-.71-2.12-1.47l.02-34.65c0-3.57-2.36-6.93-6.23-6.94l-12.75-.03-.11,5.16c-.07,3.51-2.76,7.02-6.61,7.02l-44.07-.06c-3.5,0-6.02-4-6.07-6.93l-.09-5.17ZM114.18,63.88c1.62,0,2.9-1.86,2.89-3.01v-9.65c-.01-.93-1.35-2.21-2.22-2.22l-9.58-.14c-.29-7.48-5.69-12.83-12.61-12.86s-12.54,5.28-12.84,12.76c-3.7,1.01-11.89-1.53-11.87,2.57l.03,9.3c0,1.93,1.68,3.26,3.56,3.26h42.63Z"/>
  <rect class="primeiro_contato_2" x="63.42" y="94.91" width="48.66" height="4.06"/>
  <path class="primeiro_contato_2" d="M91.99,119.71h-26.6c-.86,0-1.96-1.09-2.03-1.76-.09-.91.93-2.27,2.02-2.27h26.64c.79,0,1.88,1.19,1.95,1.86.08.84-.95,2.18-1.98,2.18Z"/>
  <path class="primeiro_contato_2" d="M87.9,140.51l-22.57.07c-.76,0-1.88-1.13-1.95-1.8-.11-.95.9-2.15,2-2.15l21.91-.1c.85,0,1.95.77,2.23,1.42.3.68-.59,2.55-1.62,2.56Z"/>
  <path class="primeiro_contato_1" d="M114.18,63.88h-42.63c-1.88,0-3.56-1.32-3.56-3.25l-.03-9.3c-.01-4.1,8.18-1.55,11.87-2.57.3-7.48,5.89-12.8,12.84-12.76s12.32,5.38,12.61,12.86l9.58.14c.86.01,2.2,1.29,2.2,2.22v9.65c.01,1.15-1.26,3.01-2.88,3.01Z"/>
  <path class="primeiro_contato_2" d="M185.13,179.88c2.62,2.6,1.39,6.83-1.01,8.7s-6.08,2.17-8.57-.27l-17.2-16.93c-1.6-1.58-1.26-4.07.26-5.95l-5.16-4.91c-9.75,8.86-23.42,10.96-35.38,5.25-11.13-5.32-18.6-17.22-17.77-30.08,1.16-18.06,16.65-31.71,34.62-30.11,11.65,1.03,21.3,8.68,25.73,18.57,5.11,11.41,3.4,23.78-4.21,33.27l4.99,4.97c2.71-1.68,5.12-.93,7.18,1.12l16.51,16.39ZM159.56,137.27c0-15.27-12.38-27.64-27.64-27.64s-27.64,12.38-27.64,27.64,12.38,27.64,27.64,27.64,27.64-12.38,27.64-27.64ZM181.95,182.17l-16.92-16.57c-1.6-.34-3.66,1.69-3.6,3.28l16.9,16.61c.78.77,2.62.51,3.37-.06.66-.5,1.16-2.37.25-3.26Z"/>
  <path class="primeiro_contato_1" d="M159.56,137.27c0,15.27-12.38,27.64-27.64,27.64s-27.64-12.38-27.64-27.64,12.38-27.64,27.64-27.64,27.64,12.38,27.64,27.64ZM125.23,145.87c1.21,1.2,2.3.97,3.36-.1l16.57-16.69c.59-.59.38-2.39-.23-2.84-.69-.51-2.11-.29-2.76.36l-15.22,15.34-6.96-6.74c-.54-.52-2.27-.28-2.74.31-.39.49-.47,1.96,0,2.42l7.99,7.93Z"/>
  <path class="primeiro_contato_1" d="M181.95,182.17c.91.89.41,2.75-.25,3.26-.75.57-2.58.83-3.37.06l-16.9-16.61c-.06-1.58,2-3.61,3.6-3.28l16.92,16.57Z"/>
  <path class="primeiro_contato_2" d="M125.23,145.87l-7.99-7.93c-.47-.46-.39-1.93,0-2.42.47-.59,2.2-.83,2.74-.31l6.96,6.74,15.22-15.34c.65-.66,2.07-.87,2.76-.36.61.45.82,2.24.23,2.84l-16.57,16.69c-1.05,1.06-2.15,1.3-3.36.1Z"/>
</svg>