<?xml version="1.0" encoding="UTF-8"?>
<svg id="ic_protecao" data-name="Camada 1" xmlns="http://www.w3.org/2000/svg" viewBox="0 0 214.47 222.64">
  <defs>
    <style>
      .protecao_1 {
        fill: #fff;
      }

      .protecao_2 {
        fill: #043420;
      }
    </style>
  </defs>
  <path class="protecao_2" d="M161.38,157.91c-11.46,21.15-32.27,36.09-54.3,45.35-24.54-9.99-47.58-27.97-57.54-53.13-5.87-13.14-7.7-26.79-7.68-41.12l.1-62.06c0-1.23.84-2.38,2.08-2.55,17.74-2.34,34.47-7.83,49.81-17.01l13.25-7.93,12.77,7.69c15.48,9.33,32.57,14.79,50.5,17.24,1.01.14,2.24,1.07,2.24,2.15l-.17,69.54c-.04,14.87-4.36,28.79-11.06,41.81ZM107.16,199.75c26.51-12.01,47.67-29.03,57.17-56.82,2.64-8.61,4.87-17.08,4.89-26.32l.13-69.1c-23.68-3.35-42.39-11.47-62.25-24.18-20.04,12.55-37.99,20.81-61.92,24.21l.03,67.69c0,12.15,3.05,23.48,7.56,34.52,10.16,23.71,31.03,40.04,54.39,50.01Z"/>
  <path class="protecao_1" d="M107.16,199.75c-23.36-9.96-44.23-26.3-54.39-50.01-4.51-11.03-7.56-22.37-7.56-34.52l-.03-67.69c23.94-3.4,41.88-11.66,61.92-24.21,19.86,12.72,38.58,20.84,62.25,24.18l-.13,69.1c-.02,9.24-2.25,17.71-4.89,26.32-9.5,27.79-30.66,44.8-57.17,56.82ZM155.79,150.43c4.82-10.43,8.28-21.57,8.3-33.32l.16-65.43c-22.58-4.09-37.69-10.79-57.12-22.56l-8.71,4.97c-14.99,8.56-30.83,14.63-48.27,17.59l-.04,61.15c0,9.38,1.3,18.04,4.26,26.82,7.85,26.04,28.65,43.81,52.67,54.77,20.1-9.3,39.28-23.46,48.75-43.98Z"/>
  <path class="protecao_2" d="M155.79,150.43c-9.47,20.52-28.65,34.68-48.75,43.98-24.02-10.96-44.82-28.73-52.67-54.77-2.95-8.78-4.26-17.44-4.26-26.82l.04-61.15c17.44-2.96,33.27-9.02,48.27-17.59l8.71-4.97c19.44,11.77,34.54,18.48,57.12,22.56l-.16,65.43c-.03,11.75-3.49,22.89-8.3,33.32ZM107.14,191.97c18.64-9.08,35.31-21.28,45.08-39.28,5.7-11.3,9.6-23.37,9.64-36.27l.19-62.79c-21.4-4.06-36.63-10.99-55.06-21.86-18.02,10.96-33.55,17.78-54.5,21.84l-.04,59.21c0,12.65,2.61,24.57,7.87,35.9,8.86,19.64,27.64,34.41,46.82,43.24Z"/>
  <path class="protecao_1" d="M107.14,191.97c-19.18-8.83-37.96-23.61-46.82-43.24-5.26-11.33-7.88-23.25-7.87-35.9l.04-59.21c20.95-4.07,36.48-10.88,54.5-21.84,18.43,10.87,33.66,17.8,55.06,21.86l-.19,62.79c-.04,12.89-3.94,24.97-9.64,36.27-9.77,18-26.44,30.2-45.08,39.28ZM139.16,156.56c3.53,0,5.68-2.71,5.87-5.81v-67.73s-20.29-20.69-20.29-20.69l-47.73-.02c-3.4.35-5.8,2.95-5.76,6.49l.03,81.96c0,2.55,2.39,5.75,5.12,5.76l62.76.04Z"/>
  <path class="protecao_2" d="M139.16,156.56l-62.76-.04c-2.74,0-5.12-3.21-5.12-5.76l-.03-81.96c-.03-3.54,2.36-6.14,5.76-6.49l47.73.02,20.28,20.69v67.73c-.19,3.09-2.33,5.81-5.86,5.81ZM142.04,150.5v-65.17s-15.4-.07-15.4-.07c-2.41-.01-4.06-2.01-4.05-4.27l.03-15.69h-45.3c-1.79,0-3.06,1.75-3.06,3.5l.03,81.48c0,1.83,1.2,3.35,3.08,3.35l61.55.02c1.65,0,3.13-1.09,3.13-3.17ZM140.01,82.19l-14.35-14.64v14.69c5.04.23,9.42.25,14.35-.05Z"/>
  <path class="protecao_1" d="M142.04,150.5c0,2.08-1.48,3.17-3.13,3.17l-61.55-.02c-1.87,0-3.08-1.52-3.08-3.35l-.03-81.48c0-1.75,1.26-3.5,3.06-3.5h45.3s-.03,15.69-.03,15.69c0,2.26,1.64,4.26,4.05,4.27l15.41.07v65.17ZM85.25,100.04l4.93,4.68,8.04-8.65c.45-.48-.03-2.01-.54-2.09-.43-.06-1.47.17-1.86.58l-5.73,6.02-3-2.74c-.39-.36-1.79-.15-2.06.26s-.15,1.59.22,1.94ZM131.04,101.04c.68,0,1.48-1.68,1.15-2.11-.28-.35-1.19-.88-1.69-.88l-24.37.02c-.66,0-1.53,1.15-1.44,1.7.08.46.98,1.29,1.51,1.29l24.83-.02ZM85.24,119.38l4.98,4.48,8.1-8.82c.34-.37-.19-1.86-.67-1.92s-1.52.29-1.86.65l-5.72,6.16-2.87-2.72c-.44-.42-1.65-.37-2.06,0-.34.31-.31,1.8.11,2.17ZM131.08,119.95c.55,0,1.45-1.6,1.1-1.99-.29-.32-1.24-.92-1.68-.92l-24.34.03c-.66,0-1.64,1.14-1.49,1.69.13.45,1.1,1.23,1.58,1.23l24.83-.04ZM85.14,138.17l5.05,4.73,8.18-8.65c.34-.36-.28-1.87-.71-1.88s-1.5.15-1.88.55l-5.73,5.91-2.89-2.71c-.42-.39-1.72-.4-2.1.02-.32.35-.27,1.71.08,2.04ZM130.99,138.77c.63,0,1.44-1.39,1.24-1.87s-1.13-1.08-1.77-1.08l-24.25.03c-.56,0-1.52.93-1.55,1.46s.97,1.51,1.54,1.51l24.78-.06Z"/>
  <path class="protecao_1" d="M140.01,82.19c-4.92.29-9.3.27-14.35.05v-14.69s14.35,14.64,14.35,14.64Z"/>
  <path class="protecao_2" d="M130.99,138.77l-24.78.06c-.57,0-1.57-.98-1.54-1.51s.99-1.46,1.55-1.46l24.25-.03c.64,0,1.57.6,1.77,1.08s-.62,1.87-1.24,1.87Z"/>
  <path class="protecao_2" d="M131.04,101.04l-24.83.02c-.54,0-1.43-.83-1.51-1.29-.1-.55.78-1.7,1.44-1.7l24.37-.02c.5,0,1.41.52,1.69.88.33.42-.47,2.11-1.15,2.11Z"/>
  <path class="protecao_2" d="M131.08,119.95l-24.83.04c-.48,0-1.46-.78-1.58-1.23-.15-.54.83-1.69,1.49-1.69l24.34-.03c.44,0,1.39.6,1.68.92.35.39-.55,1.99-1.1,1.99Z"/>
  <path class="protecao_2" d="M85.25,100.04c-.37-.35-.49-1.53-.22-1.94s1.66-.62,2.06-.26l3,2.74,5.73-6.02c.38-.4,1.43-.64,1.86-.58.51.08.99,1.6.54,2.09l-8.04,8.65-4.93-4.68Z"/>
  <path class="protecao_2" d="M85.14,138.17c-.35-.32-.4-1.69-.08-2.04.38-.41,1.68-.41,2.1-.02l2.89,2.71,5.73-5.91c.38-.4,1.44-.55,1.88-.55s1.06,1.51.71,1.88l-8.18,8.65-5.05-4.73Z"/>
  <path class="protecao_2" d="M85.24,119.38c-.42-.37-.44-1.86-.11-2.17.4-.37,1.62-.42,2.06,0l2.87,2.72,5.72-6.16c.33-.36,1.38-.71,1.86-.65s1.01,1.55.67,1.92l-8.1,8.82-4.98-4.48Z"/>
</svg>