<?xml version="1.0" encoding="UTF-8"?>
<svg id="ic_setor_publico" data-name="Camada 1" xmlns="http://www.w3.org/2000/svg" viewBox="0 0 214.47 222.64">
  <defs>
    <style>
      .setor_publico_1 {
        fill: #fff;
      }

      .setor_publico_2 {
        fill: #043420;
      }
    </style>
  </defs>
  <path class="setor_publico_2" d="M130.09,180.46c-6.97,4.55-13.68,8.18-21.12,11.48-.93.41-2.64.24-3.65-.21-13.86-6.24-26.62-14.15-37.61-24.58-15.04-14.28-23.82-33.04-24.62-53.87v-55.42c-.01-1.1,1.08-2.28,2.1-2.43,21.6-3.12,42.05-12.11,60.14-24.16,1.41-.94,2.62-.76,4.04.17,11.65,7.65,23.77,14.03,37.02,18.49,7.61,2.57,15.05,4.11,22.94,5.54,1.12.2,1.96,1.12,1.97,2.37l.06,51.19c.04,31.26-15.55,54.62-41.27,71.43ZM135.83,172.01c18.43-14.43,31.79-35.13,31.86-58.77l.16-54.49c-22.98-3.84-41.12-11.78-60.56-24.48-19.24,12.29-37.53,20.76-60.66,24.48l.03,52.63c0,17.17,6.11,33,16.94,46.11,11.12,13.46,27.74,24.17,43.77,31.32,10.2-4.5,19.57-9.84,28.48-16.81Z"/>
  <path class="setor_publico_1" d="M135.83,172.01c-8.91,6.97-18.28,12.31-28.48,16.81-16.03-7.15-32.64-17.85-43.77-31.32-10.83-13.11-16.93-28.94-16.94-46.11l-.03-52.63c23.13-3.72,41.43-12.2,60.66-24.48,19.44,12.7,37.58,20.63,60.56,24.48l-.16,54.49c-.07,23.63-13.43,44.34-31.86,58.77ZM107.44,183.41c18.09-8.5,36.2-21.7,45.97-38.66,5.69-9.87,9.23-20.84,9.24-32.39l.05-49.4c-20.84-4.08-37.6-11.55-55.43-22.81-17.46,10.84-34.75,18.93-55.41,22.77l.05,49.42c.01,13.13,4.42,25.33,11.57,36.15,10.11,15.29,27.14,27.05,43.96,34.92Z"/>
  <path class="setor_publico_2" d="M107.44,183.41c-16.81-7.87-33.85-19.63-43.96-34.92-7.15-10.82-11.56-23.02-11.57-36.15l-.05-49.42c20.67-3.84,37.95-11.93,55.41-22.77,17.83,11.26,34.58,18.73,55.43,22.81l-.05,49.4c-.01,11.55-3.55,22.52-9.24,32.39-9.77,16.96-27.89,30.15-45.97,38.66ZM107.41,180.89c12.23-5.96,22.98-13.04,32.31-22.2,12.39-12.25,19.85-27.84,20.7-45.36v-48.49c-19.36-3.95-36.24-11.54-53.1-21.87-17.33,10.32-33.42,17.84-53.2,21.87l.12,48.45c.03,11.01,3.62,21,8.88,30.41,9.56,16.62,26.96,28.81,44.29,37.19Z"/>
  <path class="setor_publico_1" d="M107.41,180.89c-17.33-8.38-34.73-20.57-44.29-37.19-5.26-9.41-8.85-19.4-8.88-30.41l-.12-48.45c19.78-4.03,35.87-11.55,53.2-21.87,16.86,10.32,33.73,17.92,53.11,21.87v48.49c-.86,17.52-8.32,33.11-20.71,45.36-9.33,9.16-20.08,16.25-32.31,22.2ZM112.14,139c-1.21-4.99-3.19-8.64-6.92-11.93-.49-.44-1.76-.26-2.25.27-2.14,2.33,8.49,6.06,6.34,19.31-.94,5.81-3.72,9.05-1.71,10.06.47.24,1.93-.15,2.14-.68,2.54-6.55,2.31-9.17,4.92-15.3,1.15,2.68,3.99,17.33,6.89,15.99.47-.22.99-1.4.82-1.88-3.83-10.53-7.21-20.39-2.78-31.11,2.1-5.09,6.28-8.53,11.72-9.67,7.99-1.67,14.93-3.3,17.77-12.6.47-1.54-.03-3.05-1.29-3.99l-11.68-8.75c-5.78-4.33-12.57-6.57-19.86-6.61-.87-2.39-1.88-4.63-3.63-6.37-4.41-4.38-11.22-4.12-15.39.54s-3.68,11.09.36,15.82c-17.04,5.04-30.84,16.12-36.2,33.15-.2.63.99,1.62,1.53,1.53.45-.07,1.46-.7,1.61-1.15,5.87-16.75,19.68-26.89,36.35-31,1.85,1.15,5.97,2.85,6.32.37.08-.53-.73-1.46-1.32-1.57-5.74-1.09-9.3-6.52-7.83-12.09.74-2.81,3.11-4.75,5.44-5.25,2.8-.6,5.46.16,7.32,2.3,1.71,1.96,2.08,4.21,2.77,6.98.19.77,2.37.12,3.22.09,10.76-.33,19.34,7.07,27.26,13.23-.1,1.51.35,3.11.75,4.35-4.23,11.19-20.12,3.01-27.5,18.04-4.35,8.86-1.39,10.72-5.17,17.92ZM128.57,94.9c0-1.46-1.18-2.64-2.64-2.64s-2.64,1.18-2.64,2.64,1.18,2.64,2.64,2.64,2.64-1.18,2.64-2.64Z"/>
  <path class="setor_publico_2" d="M112.14,139c3.77-7.2.82-9.06,5.17-17.92,7.38-15.03,23.27-6.85,27.5-18.04-.39-1.24-.85-2.84-.75-4.35-7.92-6.16-16.5-13.56-27.26-13.23-.85.03-3.03.68-3.22-.09-.69-2.77-1.07-5.02-2.77-6.98-1.87-2.14-4.53-2.9-7.32-2.3-2.34.5-4.7,2.44-5.44,5.25-1.47,5.57,2.09,11,7.83,12.09.59.11,1.4,1.04,1.32,1.57-.35,2.48-4.47.78-6.32-.37-16.67,4.1-30.48,14.25-36.35,31-.16.45-1.16,1.07-1.61,1.15-.54.09-1.72-.9-1.53-1.53,5.36-17.03,19.15-28.11,36.2-33.15-4.05-4.73-4.33-11.39-.36-15.82,4.16-4.66,10.97-4.92,15.39-.54,1.75,1.74,2.76,3.98,3.63,6.37,7.29.04,14.08,2.28,19.86,6.61l11.68,8.75c1.26.94,1.75,2.46,1.29,3.99-2.83,9.3-9.77,10.92-17.77,12.6-5.44,1.14-9.62,4.58-11.72,9.67-4.42,10.72-1.04,20.58,2.78,31.11.18.48-.35,1.66-.82,1.88-2.9,1.34-5.73-13.31-6.89-15.99-2.61,6.13-2.39,8.75-4.92,15.3-.21.53-1.67.91-2.14.68-2.01-1,.77-4.24,1.71-10.06,2.15-13.25-8.48-16.98-6.34-19.31.49-.53,1.76-.71,2.25-.27,3.73,3.28,5.71,6.94,6.92,11.93Z"/>
  <circle class="setor_publico_2" cx="125.93" cy="94.9" r="2.64"/>
</svg>