<?xml version="1.0" encoding="UTF-8"?>
<svg id="ic_setor_rural" data-name="Camada 1" xmlns="http://www.w3.org/2000/svg" viewBox="0 0 214.47 222.64">
  <defs>
    <style>
      .setor_rural_1 {
        fill: #fff;
      }

      .setor_rural_2 {
        fill: #043420;
      }
    </style>
  </defs>
  <path class="setor_rural_2" d="M150.48,193.3c-.87.9-2.11.85-2.81.33s-.92-2.03-.26-2.75c13.24-14.25,28.03-25.63,46.06-33.18.72-.3,2.13.24,2.39.82s0,2.33-.62,2.61c-18.57,8.28-30.47,17.42-44.76,32.17Z"/>
  <path class="setor_rural_2" d="M127.49,150.57c-21.47-1.31-46.08,5.86-65.48,14.82-12.1,5.59-23.02,12.25-33.21,20.78-.49.41-2.37.08-2.69-.47s-.21-1.71.09-2.56c16.6-13.86,34.55-22.77,55.4-29.84-12.05-2.63-23.91-4-36.17-4.07l-27.06-.15c-1.34,0-2.41-.79-2.41-2.03,0-1.07,1.19-2.09,2.36-2.09h10.02s.03-6.52.03-6.52c-7.66-.69-13.33-7.27-12.17-15.23,3.07-.49,5.85.18,8.76,1.25-.98-3.69,3.62-14,6.47-11.22,3.22,3.14,4.3,7.09,4.52,11.26,2.92-1.11,5.49-1.75,8.47-1.29,1.16,7.86-4.23,14.61-12.21,15.24l-.03,6.44,17.73.41-.04-85.92c-1.47-.37-2.59-1.02-2.67-1.96-.09-1.11.68-1.95,2.14-2.4l.26-7.41c.39-11.05,10.49-19.19,21.17-19.17s20.88,8.09,21.21,19.22l.21,7.18c.99.54,2.06,1.38,2.15,2.12.15,1.25-1.03,2.12-2.73,2.28v18.99s32.14-18.14,32.14-18.14c1.38-.78,2.63-.78,4.06.03l37.53,21.19,14.24,32.39c.32.73-.38,2.17-.96,2.46s-2.08.15-2.4-.47l-2.3-4.56-.03,33.23c2.17.22,4.65.92,6.44.73,3.57-.21,17.6-4.72,18.8-1.24.29.86-.33,2.52-1.38,2.59-5.9.41-11.08,1.15-16.77,2.78-28.25,8.07-53.67,23.29-74.29,44.18-.68.69-1.83.79-2.43.55-.79-.32-1.47-2.05-.73-2.82,18.11-18.88,39.9-32.7,64.84-42.15-11.16-.81-22.27.72-33.25,3.69-27.36,7.4-51.77,21.59-72.32,41.02-.64.61-2.38.17-2.81-.41-.4-.54-.4-1.89.31-2.57,19.12-18.37,41.88-31.79,67.17-40.09ZM88.08,55.12c.08-3.21.29-6.02-.28-8.69-1.85-8.6-9.44-14.42-17.93-13.96s-15.35,6.54-16.32,15.2c-.26,2.34-.17,4.6-.16,7.42l34.69.03ZM77.38,148.02l-.09-36.54-1.86,3.91c-.33.7-1.86,1.14-2.58.79-.64-.31-1.18-1.77-.85-2.51l11.36-26.14-7.2-.09c-1.23-.02-2.42-.9-2.39-2.01.02-.77,1.13-2.02,1.93-2.02h9.17s2.83-3.44,2.83-3.44l-.09-20.87-33.77.02v24.2s8.7.06,8.7.06c1.06.2,1.89,1.31,1.72,2.4-.11.69-1.37,1.65-2.13,1.65l-8.29.02v26.81s8.77.11,8.77.11c.87.01,1.84,1.37,1.7,2.19-.15.92-1.16,1.69-2.14,1.8l-8.33.05v27.05s23.55,2.54,23.55,2.54ZM104.48,114.38h42.95c1,0,2.05,1.06,2.05,2.02l.05,29.12c7.17-.82,13.53-1.23,20.44-1.29l-.02-42.62-7.79-17.49-36.43-20.47-36.53,20.56-7.83,17.98v46.72c12.14,2.83,8.85,1.56,20.63-.53l.03-31.88c0-1.05,1.03-2.11,2.45-2.11ZM30.5,128.88c3.01-3.72,2.28-8.11-.16-11.43-2.87,3.38-3.17,8.67.16,11.43ZM141.38,118.51l-31.26-.02,15.65,13.55,15.61-13.53ZM109.98,146.13l12.72-11.4-16.59-14.22-.22,26.94c1.53.35,2.95-.11,4.08-1.31ZM141.95,146.43l3.55-.39-.05-25.52-16.73,14.13,13.23,11.77ZM28.4,134.72c-.61-5.27-4.52-7.65-8.59-8.05.66,4.68,4.37,8.2,8.59,8.05ZM40.91,126.64c-4.54.3-8.25,3.72-8.73,8.31,4.44-.38,8.14-3.58,8.73-8.31ZM135.46,146.17l-9.75-8.69-9.95,8.93,19.7-.23Z"/>
  <path class="setor_rural_1" d="M104.48,114.38c-1.42,0-2.45,1.06-2.45,2.11l-.03,31.88c-11.78,2.09-8.49,3.35-20.64.53v-46.72s7.84-17.98,7.84-17.98l36.53-20.56,36.43,20.47,7.79,17.49.02,42.62c-6.91.06-13.26.47-20.44,1.29l-.05-29.12c0-.96-1.05-2.02-2.05-2.02h-42.95ZM142.15,93.65h-32.87s0,4.01,0,4.01h32.87s0-4.01,0-4.01Z"/>
  <path class="setor_rural_1" d="M77.38,148.02l-23.56-2.54v-27.05s8.34-.05,8.34-.05c.98-.11,1.99-.88,2.14-1.8.14-.81-.84-2.18-1.7-2.19l-8.77-.11v-26.81s8.29-.02,8.29-.02c.76,0,2.02-.96,2.13-1.65.18-1.09-.66-2.19-1.72-2.4l-8.71-.06v-24.2s33.78-.02,33.78-.02l.09,20.87-2.83,3.42h-9.17c-.8.02-1.9,1.27-1.93,2.03-.04,1.11,1.16,1.99,2.39,2.01l7.2.09-11.36,26.14c-.32.75.21,2.2.85,2.51.72.35,2.25-.09,2.58-.79l1.86-3.91.09,36.54Z"/>
  <path class="setor_rural_1" d="M88.08,55.12l-34.69-.03c0-2.82-.11-5.07.16-7.42.98-8.66,8.04-14.75,16.32-15.2s16.07,5.36,17.93,13.96c.58,2.67.37,5.48.28,8.69Z"/>
  <path class="setor_rural_1" d="M109.98,146.13c-1.13,1.2-2.55,1.66-4.08,1.31l.22-26.94,16.59,14.22-12.72,11.4Z"/>
  <polygon class="setor_rural_1" points="141.95 146.43 128.72 134.65 145.45 120.52 145.5 146.04 141.95 146.43"/>
  <polygon class="setor_rural_1" points="141.38 118.51 125.76 132.04 110.11 118.49 141.38 118.51"/>
  <polygon class="setor_rural_1" points="135.46 146.17 115.76 146.4 125.71 137.47 135.46 146.17"/>
  <path class="setor_rural_1" d="M40.91,126.64c-.59,4.73-4.29,7.93-8.73,8.31.48-4.59,4.18-8.01,8.73-8.31Z"/>
  <path class="setor_rural_1" d="M28.4,134.72c-4.23.15-7.93-3.37-8.59-8.05,4.07.4,7.99,2.77,8.59,8.05Z"/>
  <path class="setor_rural_1" d="M30.5,128.88c-3.33-2.76-3.03-8.05-.16-11.43,2.44,3.32,3.17,7.71.16,11.43Z"/>
  <rect class="setor_rural_2" x="109.28" y="93.65" width="32.87" height="4"/>
</svg>