<?xml version="1.0" encoding="UTF-8"?>
<svg id="ic_vistoria" data-name="Camada 1" xmlns="http://www.w3.org/2000/svg" viewBox="0 0 214.47 222.64">
  <defs>
    <style>
      .vistoria_1 {
        fill: #fff;
      }

      .vistoria_2 {
        fill: #043420;
      }
    </style>
  </defs>
  <path class="vistoria_2" d="M164.42,150.66c-2.41-.48-9.58.17-9.59-5.26l-.07-41.62c0-3.67,2.34-6.21,6.08-6.32l3.45-.1c-.5-18.83-9.84-36.31-25.6-46.82-17.86-11.91-43.22-11.98-61.27-.75-16.48,10.26-26.35,28.15-26.91,47.47,1.1.12,1.99.2,3.16.21,2.97.02,6.29,1.89,6.29,5.34l-.02,42.7c0,2.25-2.46,4.52-4.45,4.66-3.54.25-6.9.37-10.28-.07-7.08-.92-11.93-7.03-11.49-14.08l-.09-24.19c-.03-7.71,4.76-14.05,12.87-14.38.03-11.53,3.51-22.34,9.53-32,11.19-17.96,30.52-28.23,51.67-28.08,13.24.09,25.61,3.7,36.2,11.69,15.21,11.47,24.06,29.21,24.51,48.39,6.69.23,11.98,5.01,12.77,11.56v29.35c-.74,6.67-6.03,11.47-12.76,12.05-.88,15.55-12.64,29.43-28.43,29.58l-19.74.19c-.35,3.05-2.51,5.17-5.46,5.17-3.45,0-6.94.06-10.31-.14-3.53-.21-4.95-3.86-4.9-6.98s1.19-6.85,4.71-7.18c3.53-.34,7.29-.21,10.91-.17,2.9.03,4.77,2.37,5.12,5.22l18.96-.08c13.1-.06,24.33-12.19,25.13-25.35ZM54.12,146.25c1.02,0,1.96-.94,1.96-2.15v-40.84c0-.8-1.23-1.84-1.87-1.83l-7.82.09c-3.82.05-8.48,3.23-8.48,7.44v29.46c.01,4.79,5.23,7.87,9.4,7.85l6.8-.03ZM169.39,146.08c3.96-.12,7.71-4.18,7.7-8.12l-.07-29.04c-.01-4.21-4.73-7.34-8.47-7.39l-7.83-.11c-.73,0-1.92.97-1.92,1.84l-.03,41.29c0,.8,1.31,1.81,1.97,1.79l8.66-.27ZM115.54,181.25c1.09-1.87,1.17-4.89-.12-6.34l-9.66-.07c-1.61-.01-2.15,1.46-2.18,2.96-.03,1.28.24,3.49,1.88,3.53,3.29.08,6.65.06,10.09-.08Z"/>
  <path class="vistoria_2" d="M116.28,160.62c-.91,1.28-2.72.5-3.37-.43l-6.76-9.68-9.85.14c-13.95.2-26.41-9.44-26.51-23.68l-.11-16.15c-.1-13.41,10.04-25.22,23.79-25.57,9.98-.25,19.41-.26,29.45.03,12.91.37,23.22,11.45,23.47,24.14.12,6.07.14,11.52-.04,17.46-.4,12.6-10.22,22.7-22.84,23.61l-7.22,10.13ZM121.4,146.53c11.26.23,20.83-8.45,20.94-19.52l.16-15.77c.11-10.58-7.48-21.13-18.66-21.65-10.59-.49-20.71-.38-31.35-.03-9.94.33-17.84,8.97-18.61,18.62-.47,5.99-.13,11.37-.18,17.46-.1,10.47,7.69,20.51,18.34,20.69l16.18.28,6.63,9.03,6.56-9.11Z"/>
  <path class="vistoria_1" d="M169.39,146.08l-8.66.27c-.66.02-1.97-.99-1.97-1.79l.03-41.29c0-.87,1.19-1.85,1.92-1.84l7.83.11c3.74.05,8.46,3.18,8.47,7.39l.07,29.04c0,3.94-3.74,7.99-7.7,8.12Z"/>
  <path class="vistoria_1" d="M54.12,146.25l-6.8.03c-4.18.02-9.39-3.06-9.39-7.85v-29.46c-.01-4.21,4.64-7.4,8.46-7.44l7.82-.09c.63,0,1.86,1.04,1.86,1.83v40.84c0,1.22-.93,2.15-1.96,2.15Z"/>
  <path class="vistoria_1" d="M115.54,181.25c-3.44.14-6.8.16-10.09.08-1.64-.04-1.9-2.25-1.88-3.53.03-1.5.57-2.97,2.18-2.96l9.66.07c1.29,1.44,1.21,4.47.12,6.34Z"/>
  <path class="vistoria_1" d="M121.4,146.53l-6.56,9.11-6.63-9.03-16.18-.28c-10.64-.18-18.43-10.22-18.34-20.69.06-6.09-.29-11.47.18-17.46.76-9.66,8.66-18.29,18.61-18.62,10.64-.35,20.76-.46,31.35.03,11.18.52,18.77,11.07,18.66,21.65l-.16,15.77c-.11,11.07-9.69,19.75-20.94,19.52ZM94.47,118.13c0-2.26-1.83-4.08-4.08-4.08s-4.08,1.83-4.08,4.08,1.83,4.08,4.08,4.08,4.08-1.83,4.08-4.08ZM112.16,118.13c0-2.27-1.84-4.11-4.11-4.11s-4.11,1.84-4.11,4.11,1.84,4.11,4.11,4.11,4.11-1.84,4.11-4.11ZM129.79,118.13c0-2.27-1.84-4.1-4.1-4.1s-4.1,1.84-4.1,4.1,1.84,4.1,4.1,4.1,4.1-1.84,4.1-4.1Z"/>
  <circle class="vistoria_2" cx="108.05" cy="118.13" r="4.11"/>
  <circle class="vistoria_2" cx="125.69" cy="118.13" r="4.1"/>
  <circle class="vistoria_2" cx="90.39" cy="118.13" r="4.08"/>
</svg>