<?xml version="1.0" encoding="UTF-8"?>
<svg id="ic_whatsapp_icon" data-name="Camada 1" xmlns="http://www.w3.org/2000/svg" viewBox="0 0 214.47 222.64">
  <defs>
    <style>
      .whatsapp_icon_1 {
        fill: #fff;
      }

      .whatsapp_icon_2 {
        fill: #043420;
      }
    </style>
  </defs>
  <path class="whatsapp_icon_2" d="M107.41,192.55c-13.82-5.75-26.36-13.31-37.21-23.31-15.8-14.56-26.41-34.44-26.5-56.13l-.23-55.94c0-1.22,1.08-2.29,2.17-2.44,23.02-3.22,40.39-11.6,59.77-23.77,1.4-.88,2.43-.73,3.74.13,18.8,12.23,37.03,20.26,59.39,23.56,1.43.21,2.36,1.03,2.37,2.49l.06,49.78c.03,23.96-9.08,46.43-26.97,62.42-10.56,9.8-22.73,17.22-36.59,23.21ZM107.37,188.76c12.79-5.66,23.77-12.54,33.75-21.46,16.13-14.48,26.18-34.65,26.21-56.55l.07-52.65c-22.91-3.7-40.74-11.52-60.21-24.09-19.05,11.98-37.43,20.75-60.21,23.98l-.07,49.4c-.03,22.69,8.57,43.49,25.35,58.86,10.13,9.49,22.08,16.93,35.1,22.51Z"/>
  <path class="whatsapp_icon_1" d="M107.37,188.76c-13.02-5.58-24.96-13.02-35.1-22.51-16.78-15.36-25.38-36.17-25.35-58.86l.07-49.4c22.78-3.23,41.16-12,60.21-23.98,19.47,12.57,37.3,20.39,60.21,24.09l-.07,52.65c-.03,21.9-10.08,42.06-26.21,56.55-9.98,8.92-20.96,15.8-33.75,21.46ZM139.61,161.73c13.37-13.26,22.53-30.22,22.6-49.11l.16-50.38c-14.71-2.58-28.37-7.09-41.11-14.32l-14.04-7.96c-18.03,10.83-33.93,18.5-55.11,22.31l.3,51.78c.1,17.52,8.89,33.12,20.54,45.77,9.92,10.04,21.46,17.69,34.39,23.49,11.89-5.61,22.6-12.42,32.26-21.57Z"/>
  <path class="whatsapp_icon_2" d="M139.61,161.73c-9.66,9.16-20.37,15.96-32.26,21.57-12.92-5.79-24.47-13.45-34.39-23.49-11.65-12.65-20.44-28.25-20.54-45.77l-.3-51.78c21.18-3.81,37.08-11.48,55.11-22.31l14.04,7.96c12.74,7.23,26.4,11.74,41.11,14.32l-.16,50.38c-.06,18.89-9.23,35.85-22.6,49.11ZM107.38,180.86c11.5-5.67,21.51-12.08,30.48-20.63,12.82-12.58,21.93-28.89,22.01-47.15l.21-48.96c-19.64-3.78-35.5-11.05-52.81-21.43-17.1,10.21-33.01,17.66-52.78,21.43l.09,48c.02,11.55,3.76,22.1,9.35,31.96,9.61,16.59,26.2,28.78,43.46,36.78Z"/>
  <path class="whatsapp_icon_1" d="M107.38,180.86c-17.26-8-33.85-20.19-43.46-36.78-5.6-9.86-9.33-20.4-9.35-31.96l-.09-48c19.77-3.77,35.68-11.22,52.78-21.43,17.32,10.38,33.17,17.66,52.81,21.43l-.21,48.96c-.08,18.26-9.19,34.57-22.01,47.15-8.97,8.55-18.98,14.97-30.48,20.63ZM97.91,147.8c-.68,0-1.63,1.01-1.69,1.58s.89,1.62,1.57,1.62l26.17-.05c.58,0,1.55-.98,1.55-1.54s-.97-1.59-1.6-1.6l-7.5-.09-3.55-12.04c11.71-3.48,19.56-13.62,20.66-25.92.43-4.8.14-9.3.31-14.26.24-6.77,9.29-5.91,9.54-8.74.03-.35-.59-1.17-1-1.34l-7.22-2.97c-2.27-5.72-7.56-8.72-13.6-8.54-11.51.34-14.08,12.53-16.83,15.95l-34.62,43.03c-.43.54-.33,1.86.02,2.01.26.11.91.35,1.24.35l13.2.05-9.26,12.24c-.02.56.21,1.35.59,1.61.3.2,1.85.12,2.17-.29l10.46-13.53c4.6-1.06,8.44,1.97,14.61,1.89l3.54,10.48-8.75.09Z"/>
  <path class="whatsapp_icon_2" d="M97.91,147.8l8.75-.09-3.54-10.48c-6.16.08-10.01-2.96-14.61-1.89l-10.46,13.53c-.32.42-1.87.5-2.17.29-.38-.26-.61-1.05-.59-1.61l9.26-12.24-13.2-.05c-.33,0-.98-.24-1.24-.35-.35-.15-.45-1.48-.02-2.01l34.62-43.03c2.75-3.41,5.32-15.6,16.83-15.95,6.04-.18,11.33,2.82,13.6,8.54l7.22,2.97c.41.17,1.03.99,1,1.34-.25,2.82-9.3,1.97-9.54,8.74-.18,4.96.12,9.46-.31,14.26-1.1,12.3-8.95,22.44-20.66,25.92l3.55,12.04,7.5.09c.64,0,1.61,1.05,1.6,1.6s-.97,1.54-1.55,1.54l-26.17.05c-.69,0-1.63-1.05-1.57-1.62s1.01-1.57,1.69-1.58ZM116.43,113.39c-3.04,9.3-10.09,15.56-19.29,19.61,7.91,2.14,16.61.49,23.13-4.59s10.09-12.15,10.2-20.02l.18-12.81c.06-4.31,2.89-7.3,7.11-8.66l-5.19-2.33c-1.18-3.45-3.49-5.64-6.05-6.66-3.58-1.43-6.92-1.06-10.02.73-5.35,3.09-6.68,10-9.58,13.59l-31.97,39.63c9.71.78,16.6.69,25.25-3.97,6.47-3.48,11.21-9.01,13.4-16.02.28-.88,1.55-1.45,2.42-1.09.59.24.79,1.46.42,2.59ZM113.19,147.67l-3.44-11.16-3.46.6,3.33,10.51,3.58.05Z"/>
  <path class="whatsapp_icon_1" d="M116.43,113.39c.37-1.13.17-2.35-.42-2.59-.87-.35-2.14.21-2.42,1.09-2.19,7.02-6.93,12.54-13.4,16.02-8.65,4.65-15.54,4.75-25.25,3.97l31.97-39.63c2.9-3.59,4.23-10.5,9.58-13.59,3.11-1.79,6.45-2.16,10.02-.73,2.56,1.02,4.87,3.21,6.05,6.66l5.19,2.33c-4.22,1.36-7.05,4.35-7.11,8.66l-.18,12.81c-.11,7.87-4.02,15.2-10.2,20.02-6.51,5.07-15.21,6.73-23.13,4.59,9.2-4.05,16.25-10.31,19.29-19.61ZM126.17,84.46c0-1.31-1.06-2.38-2.38-2.38s-2.38,1.06-2.38,2.38,1.06,2.38,2.38,2.38,2.38-1.06,2.38-2.38Z"/>
  <polygon class="whatsapp_icon_1" points="113.19 147.67 109.62 147.62 106.29 137.11 109.75 136.51 113.19 147.67"/>
  <circle class="whatsapp_icon_2" cx="123.8" cy="84.46" r="2.38"/>
</svg>